<svg xmlns="http://www.w3.org/2000/svg" viewBox="0 0 500 500"><g id="freepik--background-simple--inject-432"><path d="M87.8,333.22c-79.23-99.1,130.72-171.89,160-225.17s133.46-77.71,145.35,30.33C403.08,228.58,359,255.82,299,293.47,249.86,324.34,167,432.32,87.8,333.22Z" style="fill:#407BFF"></path><path d="M87.8,333.22c-79.23-99.1,130.72-171.89,160-225.17s133.46-77.71,145.35,30.33C403.08,228.58,359,255.82,299,293.47,249.86,324.34,167,432.32,87.8,333.22Z" style="fill:#fff;opacity:0.9"></path></g><g id="freepik--Shadow--inject-432"><ellipse id="freepik--path--inject-432" cx="250" cy="416.24" rx="193.89" ry="11.32" style="fill:#f5f5f5"></ellipse></g><g id="freepik--Envelope--inject-432"><path d="M277.25,171.14A1263.49,1263.49,0,0,0,152.8,231a1511.06,1511.06,0,0,1,216.08,35.22A1105.32,1105.32,0,0,0,277.25,171.14Z" style="fill:#407BFF"></path><path d="M163.75,226.94A1520.28,1520.28,0,0,1,360.36,259c11,2.56,17.78,11.36,15.1,19.41L346.6,365.49c-2.71,8.05-12.82,12.67-22.54,10.42a1350,1350,0,0,0-174.3-28.41c-10-1-17.54-8.47-16.77-16.83q4.37-45.19,8.72-90.38C142.48,231.93,152.42,225.85,163.75,226.94Z" style="fill:#407BFF"></path><path d="M163.75,226.94A1520.28,1520.28,0,0,1,360.36,259c11,2.56,17.78,11.36,15.1,19.41L346.6,365.49c-2.71,8.05-12.82,12.67-22.54,10.42a1350,1350,0,0,0-174.3-28.41c-10-1-17.54-8.47-16.77-16.83q4.37-45.19,8.72-90.38C142.48,231.93,152.42,225.85,163.75,226.94Z" style="fill:#fff;opacity:0.5"></path><path d="M149.77,347.51a1346,1346,0,0,1,174.28,28.41,21.62,21.62,0,0,0,12.82-.91,988.8,988.8,0,0,0-84.09-88.3,1130,1130,0,0,0-114.62,55.91A20.26,20.26,0,0,0,149.77,347.51Z" style="fill:#407BFF"></path><path d="M149.77,347.51a1346,1346,0,0,1,174.28,28.41,21.62,21.62,0,0,0,12.82-.91,988.8,988.8,0,0,0-84.09-88.3,1130,1130,0,0,0-114.62,55.91A20.26,20.26,0,0,0,149.77,347.51Z" style="fill:#fff;opacity:0.7000000000000001"></path><path d="M248.19,308.38a1230.07,1230.07,0,0,1,121.61-45,23.85,23.85,0,0,0-9.44-4.41,1518.41,1518.41,0,0,0-196.6-32.05,25.78,25.78,0,0,0-10.64,1.14A1086.3,1086.3,0,0,1,248.19,308.38Z" style="fill:#407BFF"></path><path d="M248.19,308.38a1230.07,1230.07,0,0,1,121.61-45,23.85,23.85,0,0,0-9.44-4.41,1518.41,1518.41,0,0,0-196.6-32.05,25.78,25.78,0,0,0-10.64,1.14A1086.3,1086.3,0,0,1,248.19,308.38Z" style="fill:#fff;opacity:0.2"></path></g><g id="freepik--bunch-of-envelopes--inject-432"><path d="M280.41,228.13a175.69,175.69,0,0,0-18.32,9.54,187.41,187.41,0,0,1,30.75,6.65A171.45,171.45,0,0,0,280.41,228.13Z" style="fill:#407BFF"></path><path d="M263.69,237a189,189,0,0,1,28,6.06,2.7,2.7,0,0,1,2,3.29q-2.4,7.22-4.81,14.42a2.69,2.69,0,0,1-3.32,1.65,167.52,167.52,0,0,0-24.8-5.37,2.6,2.6,0,0,1-2.28-2.86l1.95-15A2.77,2.77,0,0,1,263.69,237Z" style="fill:#407BFF"></path><path d="M263.69,237a189,189,0,0,1,28,6.06,2.7,2.7,0,0,1,2,3.29q-2.4,7.22-4.81,14.42a2.69,2.69,0,0,1-3.32,1.65,167.52,167.52,0,0,0-24.8-5.37,2.6,2.6,0,0,1-2.28-2.86l1.95-15A2.77,2.77,0,0,1,263.69,237Z" style="fill:#fff;opacity:0.5"></path><path d="M260.76,257.07a167.52,167.52,0,0,1,24.8,5.37,2.73,2.73,0,0,0,1.85-.1,151.73,151.73,0,0,0-11.4-15,157.61,157.61,0,0,0-16.88,8.91A2.64,2.64,0,0,0,260.76,257.07Z" style="fill:#407BFF"></path><path d="M260.76,257.07a167.52,167.52,0,0,1,24.8,5.37,2.73,2.73,0,0,0,1.85-.1,151.73,151.73,0,0,0-11.4-15,157.61,157.61,0,0,0-16.88,8.91A2.64,2.64,0,0,0,260.76,257.07Z" style="fill:#fff;opacity:0.7000000000000001"></path><path d="M275.19,250.91a163.63,163.63,0,0,1,17.8-7.06,3.16,3.16,0,0,0-1.32-.77,189,189,0,0,0-28-6.06,3.37,3.37,0,0,0-1.53.15A159.43,159.43,0,0,1,275.19,250.91Z" style="fill:#407BFF"></path><path d="M275.19,250.91a163.63,163.63,0,0,1,17.8-7.06,3.16,3.16,0,0,0-1.32-.77,189,189,0,0,0-28-6.06,3.37,3.37,0,0,0-1.53.15A159.43,159.43,0,0,1,275.19,250.91Z" style="fill:#fff;opacity:0.2"></path><path d="M354.9,297.66l-26.77-16.12a3.32,3.32,0,0,0-4.47,1l-10.19,16a3.12,3.12,0,0,0,1,4.35L341.28,319a3.33,3.33,0,0,0,4.48-1L356,302A3.12,3.12,0,0,0,354.9,297.66Z" style="fill:#407BFF"></path><path d="M354.9,297.66l-26.77-16.12a3.32,3.32,0,0,0-4.47,1l-10.19,16a3.12,3.12,0,0,0,1,4.35L341.28,319a3.33,3.33,0,0,0,4.48-1L356,302A3.12,3.12,0,0,0,354.9,297.66Z" style="fill:#fff;opacity:0.30000000000000004"></path><path d="M341.28,319l-26.76-16.12a3.12,3.12,0,0,1-1.39-1.76l23-3.11,7.38,21.41A3.28,3.28,0,0,1,341.28,319Z" style="fill:#407BFF"></path><path d="M341.28,319l-26.76-16.12a3.12,3.12,0,0,1-1.39-1.76l23-3.11,7.38,21.41A3.28,3.28,0,0,1,341.28,319Z" style="fill:#fff;opacity:0.5"></path><path d="M333.67,301.89l-7.17-20.82a3.4,3.4,0,0,1,1.64.47l26.76,16.12a3.2,3.2,0,0,1,1.16,1.21Z" style="fill:#407BFF"></path><path d="M324.62,252.69l-22.53-13.56a2.8,2.8,0,0,0-3.77.85l-8.57,13.44a2.61,2.61,0,0,0,.88,3.66l22.53,13.57a2.8,2.8,0,0,0,3.77-.86l8.57-13.44A2.62,2.62,0,0,0,324.62,252.69Z" style="fill:#407BFF"></path><path d="M324.62,252.69l-22.53-13.56a2.8,2.8,0,0,0-3.77.85l-8.57,13.44a2.61,2.61,0,0,0,.88,3.66l22.53,13.57a2.8,2.8,0,0,0,3.77-.86l8.57-13.44A2.62,2.62,0,0,0,324.62,252.69Z" style="fill:#fff;opacity:0.30000000000000004"></path><path d="M313.16,270.65l-22.53-13.57a2.66,2.66,0,0,1-1.17-1.48L308.84,253l6.21,18A2.81,2.81,0,0,1,313.16,270.65Z" style="fill:#407BFF"></path><path d="M313.16,270.65l-22.53-13.57a2.66,2.66,0,0,1-1.17-1.48L308.84,253l6.21,18A2.81,2.81,0,0,1,313.16,270.65Z" style="fill:#fff;opacity:0.5"></path><path d="M306.75,256.25l-6-17.52a2.84,2.84,0,0,1,1.37.39l22.53,13.57a2.66,2.66,0,0,1,1,1Z" style="fill:#407BFF"></path><path d="M195,283.26l-26.49-3.93a2.77,2.77,0,0,0-3.15,2.25l-2.49,15.81a2.7,2.7,0,0,0,2.32,3.06l26.49,3.93a2.76,2.76,0,0,0,3.15-2.25l2.49-15.8A2.72,2.72,0,0,0,195,283.26Z" style="fill:#407BFF"></path><path d="M195,283.26l-26.49-3.93a2.77,2.77,0,0,0-3.15,2.25l-2.49,15.81a2.7,2.7,0,0,0,2.32,3.06l26.49,3.93a2.76,2.76,0,0,0,3.15-2.25l2.49-15.8A2.72,2.72,0,0,0,195,283.26Z" style="fill:#fff;opacity:0.30000000000000004"></path><path d="M191.68,304.39l-26.49-3.94a2.74,2.74,0,0,1-1.7-.93l17-9.9L193.58,304A2.81,2.81,0,0,1,191.68,304.39Z" style="fill:#407BFF"></path><path d="M191.68,304.39l-26.49-3.94a2.74,2.74,0,0,1-1.7-.93l17-9.9L193.58,304A2.81,2.81,0,0,1,191.68,304.39Z" style="fill:#fff;opacity:0.5"></path><path d="M179.84,293.46l-12.77-14a2.78,2.78,0,0,1,1.44-.16L195,283.26a2.77,2.77,0,0,1,1.33.58Z" style="fill:#407BFF"></path><path d="M321.35,275.14c-8.79,1.89-18,2.36-26.75,4.26a2.63,2.63,0,0,0-2,3.25q2.12,7.78,4.21,15.57a2.89,2.89,0,0,0,3.42,2c8.78-1.89,18-2.36,26.74-4.25a2.64,2.64,0,0,0,2-3.26q-2.1-7.79-4.21-15.57A2.89,2.89,0,0,0,321.35,275.14Z" style="fill:#407BFF"></path><path d="M321.35,275.14c-8.79,1.89-18,2.36-26.75,4.26a2.63,2.63,0,0,0-2,3.25q2.12,7.78,4.21,15.57a2.89,2.89,0,0,0,3.42,2c8.78-1.89,18-2.36,26.74-4.25a2.64,2.64,0,0,0,2-3.26q-2.1-7.79-4.21-15.57A2.89,2.89,0,0,0,321.35,275.14Z" style="fill:#fff;opacity:0.30000000000000004"></path><path d="M327,296c-8.78,1.89-18,2.36-26.74,4.26a3,3,0,0,1-2-.25c3.88-5.18,7.9-9.84,11.93-14.49,6.17,3.31,12.35,6.63,18.38,9.42A2.62,2.62,0,0,1,327,296Z" style="fill:#407BFF"></path><path d="M327,296c-8.78,1.89-18,2.36-26.74,4.26a3,3,0,0,1-2-.25c3.88-5.18,7.9-9.84,11.93-14.49,6.17,3.31,12.35,6.63,18.38,9.42A2.62,2.62,0,0,1,327,296Z" style="fill:#fff;opacity:0.5"></path><path d="M311.21,289.25c-6-3.22-12-6.44-17.89-9.18a2.61,2.61,0,0,1,1.28-.68c8.78-1.89,18-2.36,26.74-4.25a3,3,0,0,1,1.48.05C319,280.2,315.12,284.73,311.21,289.25Z" style="fill:#407BFF"></path><path d="M277.55,256.08a216.44,216.44,0,0,1,21.32,14.05,232.91,232.91,0,0,0-38.79,4.35A210.28,210.28,0,0,1,277.55,256.08Z" style="fill:#407BFF"></path><path d="M297,269.14a233.69,233.69,0,0,0-35.3,3.95,3.37,3.37,0,0,0-2.93,3.8l4,18.38a3.31,3.31,0,0,0,3.86,2.46,206.79,206.79,0,0,1,31.3-3.5,3.27,3.27,0,0,0,3.19-3.25q-.21-9.39-.4-18.78A3.42,3.42,0,0,0,297,269.14Z" style="fill:#407BFF"></path><path d="M297,269.14a233.69,233.69,0,0,0-35.3,3.95,3.37,3.37,0,0,0-2.93,3.8l4,18.38a3.31,3.31,0,0,0,3.86,2.46,206.79,206.79,0,0,1,31.3-3.5,3.27,3.27,0,0,0,3.19-3.25q-.21-9.39-.4-18.78A3.42,3.42,0,0,0,297,269.14Z" style="fill:#fff;opacity:0.5"></path><path d="M297.92,294.23a206.8,206.8,0,0,0-31.29,3.5,3.37,3.37,0,0,1-2.26-.36,192.68,192.68,0,0,1,16.05-17.1,196.48,196.48,0,0,1,19.63,13.11A3.37,3.37,0,0,1,297.92,294.23Z" style="fill:#407BFF"></path><path d="M297.92,294.23a206.8,206.8,0,0,0-31.29,3.5,3.37,3.37,0,0,1-2.26-.36,192.68,192.68,0,0,1,16.05-17.1,196.48,196.48,0,0,1,19.63,13.11A3.37,3.37,0,0,1,297.92,294.23Z" style="fill:#fff;opacity:0.7000000000000001"></path><path d="M281,284.81a205.81,205.81,0,0,0-21-10.94,4,4,0,0,1,1.73-.78,233.55,233.55,0,0,1,35.3-3.95,4.1,4.1,0,0,1,1.87.38A198.86,198.86,0,0,0,281,284.81Z" style="fill:#407BFF"></path><path d="M281,284.81a205.81,205.81,0,0,0-21-10.94,4,4,0,0,1,1.73-.78,233.55,233.55,0,0,1,35.3-3.95,4.1,4.1,0,0,1,1.87.38A198.86,198.86,0,0,0,281,284.81Z" style="fill:#fff;opacity:0.2"></path><path d="M288.08,275.92,257,280.6a3.19,3.19,0,0,0-2.72,3.61l3,18.56a3.26,3.26,0,0,0,3.72,2.64L292,300.72a3.18,3.18,0,0,0,2.72-3.6l-3-18.57A3.24,3.24,0,0,0,288.08,275.92Z" style="fill:#407BFF"></path><path d="M288.08,275.92,257,280.6a3.19,3.19,0,0,0-2.72,3.61l3,18.56a3.26,3.26,0,0,0,3.72,2.64L292,300.72a3.18,3.18,0,0,0,2.72-3.6l-3-18.57A3.24,3.24,0,0,0,288.08,275.92Z" style="fill:#fff;opacity:0.30000000000000004"></path><path d="M292,300.72l-31.11,4.69a3.31,3.31,0,0,1-2.24-.46L274.09,288,294,299.63A3.2,3.2,0,0,1,292,300.72Z" style="fill:#407BFF"></path><path d="M292,300.72l-31.11,4.69a3.31,3.31,0,0,1-2.24-.46L274.09,288,294,299.63A3.2,3.2,0,0,1,292,300.72Z" style="fill:#fff;opacity:0.5"></path><path d="M274.81,292.55l-19.4-11.27a3.21,3.21,0,0,1,1.56-.68l31.11-4.68a3.35,3.35,0,0,1,1.7.18Z" style="fill:#407BFF"></path><polygon points="260.07 249.97 270.77 266.65 242.06 258.92 260.07 249.97" style="fill:#407BFF"></polygon><path d="M269.66,265.41l-26-7a2.81,2.81,0,0,0-3.43,1.89l-4.43,15.51a2.72,2.72,0,0,0,1.95,3.33l26,7a2.8,2.8,0,0,0,3.43-1.88l4.42-15.51A2.7,2.7,0,0,0,269.66,265.41Z" style="fill:#407BFF"></path><path d="M269.66,265.41l-26-7a2.81,2.81,0,0,0-3.43,1.89l-4.43,15.51a2.72,2.72,0,0,0,1.95,3.33l26,7a2.8,2.8,0,0,0,3.43-1.88l4.42-15.51A2.7,2.7,0,0,0,269.66,265.41Z" style="fill:#fff;opacity:0.5"></path><path d="M263.75,286.13l-26-7a2.69,2.69,0,0,1-1.57-1.13l18.16-7.93L265.7,286A2.77,2.77,0,0,1,263.75,286.13Z" style="fill:#407BFF"></path><path d="M263.75,286.13l-26-7a2.69,2.69,0,0,1-1.57-1.13l18.16-7.93L265.7,286A2.77,2.77,0,0,1,263.75,286.13Z" style="fill:#fff;opacity:0.7000000000000001"></path><path d="M253.26,273.85l-11-15.44a2.89,2.89,0,0,1,1.46,0l26,7a2.7,2.7,0,0,1,1.26.73Z" style="fill:#407BFF"></path><path d="M253.26,273.85l-11-15.44a2.89,2.89,0,0,1,1.46,0l26,7a2.7,2.7,0,0,1,1.26.73Z" style="fill:#fff;opacity:0.2"></path><path d="M261.51,281.48c-10.37-1.62-20.53-4.94-30.9-6.56a3.15,3.15,0,0,0-3.61,2.7l-2.34,18.65a3.29,3.29,0,0,0,2.83,3.57c10.37,1.62,20.53,4.94,30.9,6.56a3.14,3.14,0,0,0,3.61-2.69l2.34-18.65A3.3,3.3,0,0,0,261.51,281.48Z" style="fill:#407BFF"></path><path d="M261.51,281.48c-10.37-1.62-20.53-4.94-30.9-6.56a3.15,3.15,0,0,0-3.61,2.7l-2.34,18.65a3.29,3.29,0,0,0,2.83,3.57c10.37,1.62,20.53,4.94,30.9,6.56a3.14,3.14,0,0,0,3.61-2.69l2.34-18.65A3.3,3.3,0,0,0,261.51,281.48Z" style="fill:#fff;opacity:0.30000000000000004"></path><path d="M258.39,306.4c-10.37-1.62-20.53-4.94-30.9-6.55a3.47,3.47,0,0,1-2-1.09c6.51-4,12.94-7.36,19.36-10.74,5.23,6.18,10.47,12.36,15.78,17.91A3.14,3.14,0,0,1,258.39,306.4Z" style="fill:#407BFF"></path><path d="M258.39,306.4c-10.37-1.62-20.53-4.94-30.9-6.55a3.47,3.47,0,0,1-2-1.09c6.51-4,12.94-7.36,19.36-10.74,5.23,6.18,10.47,12.36,15.78,17.91A3.14,3.14,0,0,1,258.39,306.4Z" style="fill:#fff;opacity:0.5"></path><path d="M244.26,292.56c-5.08-6-10.17-12-15.33-17.44a3.16,3.16,0,0,1,1.68-.2c10.37,1.62,20.53,4.94,30.9,6.56a3.33,3.33,0,0,1,1.57.68C256.76,286,250.51,289.28,244.26,292.56Z" style="fill:#407BFF"></path><path d="M204.86,269.26a194.19,194.19,0,0,1,20.27,10.88,207.85,207.85,0,0,0-34.34,7A190,190,0,0,1,204.86,269.26Z" style="fill:#407BFF"></path><path d="M223.36,279.4a208.81,208.81,0,0,0-31.25,6.36,3,3,0,0,0-2.3,3.64q2.58,8.06,5.15,16.12a3,3,0,0,0,3.67,1.89,185.05,185.05,0,0,1,27.7-5.64,2.91,2.91,0,0,0,2.58-3.16L227,281.83A3.07,3.07,0,0,0,223.36,279.4Z" style="fill:#407BFF"></path><path d="M223.36,279.4a208.81,208.81,0,0,0-31.25,6.36,3,3,0,0,0-2.3,3.64q2.58,8.06,5.15,16.12a3,3,0,0,0,3.67,1.89,185.05,185.05,0,0,1,27.7-5.64,2.91,2.91,0,0,0,2.58-3.16L227,281.83A3.07,3.07,0,0,0,223.36,279.4Z" style="fill:#fff;opacity:0.5"></path><path d="M226.33,301.77a186.32,186.32,0,0,0-27.7,5.64,3.05,3.05,0,0,1-2-.14,169.91,169.91,0,0,1,12.9-16.58,174.22,174.22,0,0,1,18.68,10.15A3,3,0,0,1,226.33,301.77Z" style="fill:#407BFF"></path><path d="M226.33,301.77a186.32,186.32,0,0,0-27.7,5.64,3.05,3.05,0,0,1-2-.14,169.91,169.91,0,0,1,12.9-16.58,174.22,174.22,0,0,1,18.68,10.15A3,3,0,0,1,226.33,301.77Z" style="fill:#fff;opacity:0.7000000000000001"></path><path d="M210.35,294.7a184.89,184.89,0,0,0-19.72-8.1,3.38,3.38,0,0,1,1.48-.84,208.81,208.81,0,0,1,31.25-6.36,3.49,3.49,0,0,1,1.71.19A177,177,0,0,0,210.35,294.7Z" style="fill:#407BFF"></path><path d="M210.35,294.7a184.89,184.89,0,0,0-19.72-8.1,3.38,3.38,0,0,1,1.48-.84,208.81,208.81,0,0,1,31.25-6.36,3.49,3.49,0,0,1,1.71.19A177,177,0,0,0,210.35,294.7Z" style="fill:#fff;opacity:0.2"></path><path d="M139.38,302.58l36.09,2.17A3.69,3.69,0,0,1,179,308.6l-1.38,21.52a3.7,3.7,0,0,1-4,3.4l-36.09-2.18a3.66,3.66,0,0,1-3.49-3.84L135.42,306A3.7,3.7,0,0,1,139.38,302.58Z" style="fill:#407BFF"></path><path d="M139.38,302.58l36.09,2.17A3.69,3.69,0,0,1,179,308.6l-1.38,21.52a3.7,3.7,0,0,1-4,3.4l-36.09-2.18a3.66,3.66,0,0,1-3.49-3.84L135.42,306A3.7,3.7,0,0,1,139.38,302.58Z" style="fill:#fff;opacity:0.30000000000000004"></path><path d="M137.55,331.34l36.08,2.18a3.71,3.71,0,0,0,2.5-.76L156.7,315l-21.55,15.29A3.66,3.66,0,0,0,137.55,331.34Z" style="fill:#407BFF"></path><path d="M137.55,331.34l36.08,2.18a3.71,3.71,0,0,0,2.5-.76L156.7,315l-21.55,15.29A3.66,3.66,0,0,0,137.55,331.34Z" style="fill:#fff;opacity:0.5"></path><path d="M156.36,320.24l21-14.87a3.71,3.71,0,0,0-1.85-.62l-36.09-2.18a3.9,3.9,0,0,0-1.92.39Z" style="fill:#407BFF"></path><path d="M121.43,255.09l24,10a2.61,2.61,0,0,1,1.41,3.44l-6.33,14.31a2.73,2.73,0,0,1-3.54,1.37l-24-10a2.6,2.6,0,0,1-1.42-3.44l6.33-14.3A2.74,2.74,0,0,1,121.43,255.09Z" style="fill:#407BFF"></path><path d="M121.43,255.09l24,10a2.61,2.61,0,0,1,1.41,3.44l-6.33,14.31a2.73,2.73,0,0,1-3.54,1.37l-24-10a2.6,2.6,0,0,1-1.42-3.44l6.33-14.3A2.74,2.74,0,0,1,121.43,255.09Z" style="fill:#fff;opacity:0.30000000000000004"></path><path d="M113,274.2l24,10a2.77,2.77,0,0,0,1.9.08l-8.76-16.67-18.48,5.3A2.61,2.61,0,0,0,113,274.2Z" style="fill:#407BFF"></path><path d="M113,274.2l24,10a2.77,2.77,0,0,0,1.9.08l-8.76-16.67-18.48,5.3A2.61,2.61,0,0,0,113,274.2Z" style="fill:#fff;opacity:0.5"></path><path d="M128.55,271.1l18-5.15a2.56,2.56,0,0,0-1.1-.86l-24-10a2.73,2.73,0,0,0-1.4-.19Z" style="fill:#407BFF"></path><path d="M233.59,245.37l-27.6,6a1.7,1.7,0,0,0-1.09,2.76l7.22,11.35a4,4,0,0,0,3.92,1.68l27.6-6a1.69,1.69,0,0,0,1.09-2.76l-7.22-11.35A4,4,0,0,0,233.59,245.37Z" style="fill:#407BFF"></path><path d="M233.59,245.37l-27.6,6a1.7,1.7,0,0,0-1.09,2.76l7.22,11.35a4,4,0,0,0,3.92,1.68l27.6-6a1.69,1.69,0,0,0,1.09-2.76l-7.22-11.35A4,4,0,0,0,233.59,245.37Z" style="fill:#fff;opacity:0.30000000000000004"></path><path d="M243.35,261.23l-27,5.84a4.35,4.35,0,0,1-2.15-.09l9.57-12.4,21.12,5.75A2.47,2.47,0,0,1,243.35,261.23Z" style="fill:#407BFF"></path><path d="M243.35,261.23l-27,5.84a4.35,4.35,0,0,1-2.15-.09l9.57-12.4,21.12,5.75A2.47,2.47,0,0,1,243.35,261.23Z" style="fill:#fff;opacity:0.5"></path><path d="M225.58,257.46l-20.53-5.6a2.77,2.77,0,0,1,1.23-.58l27-5.85a4.47,4.47,0,0,1,1.59,0Z" style="fill:#407BFF"></path><path d="M326.15,312.91l30.42-4.52a3.18,3.18,0,0,1,3.62,2.59l2.86,18.14a3.12,3.12,0,0,1-2.67,3.52L330,337.16a3.17,3.17,0,0,1-3.62-2.59l-2.86-18.14A3.11,3.11,0,0,1,326.15,312.91Z" style="fill:#407BFF"></path><path d="M326.15,312.91l30.42-4.52a3.18,3.18,0,0,1,3.62,2.59l2.86,18.14a3.12,3.12,0,0,1-2.67,3.52L330,337.16a3.17,3.17,0,0,1-3.62-2.59l-2.86-18.14A3.11,3.11,0,0,1,326.15,312.91Z" style="fill:#fff;opacity:0.30000000000000004"></path><path d="M330,337.16l30.41-4.52a3.17,3.17,0,0,0,1.95-1.06l-19.47-11.37-15.08,16.5A3.23,3.23,0,0,0,330,337.16Z" style="fill:#407BFF"></path><path d="M330,337.16l30.41-4.52a3.17,3.17,0,0,0,1.95-1.06l-19.47-11.37-15.08,16.5A3.23,3.23,0,0,0,330,337.16Z" style="fill:#fff;opacity:0.5"></path><path d="M343.56,324.62l14.66-16a3.27,3.27,0,0,0-1.65-.19l-30.42,4.52a3.18,3.18,0,0,0-1.52.66Z" style="fill:#407BFF"></path><polygon points="173.55 265.63 155.35 285.14 195.11 281.59 173.55 265.63" style="fill:#407BFF"></polygon><path d="M157.12,283.77l36-3.22a3.72,3.72,0,0,1,4.06,3.28l2,21.48a3.66,3.66,0,0,1-3.37,3.94l-36,3.22a3.71,3.71,0,0,1-4.06-3.28l-2-21.47A3.67,3.67,0,0,1,157.12,283.77Z" style="fill:#407BFF"></path><path d="M157.12,283.77l36-3.22a3.72,3.72,0,0,1,4.06,3.28l2,21.48a3.66,3.66,0,0,1-3.37,3.94l-36,3.22a3.71,3.71,0,0,1-4.06-3.28l-2-21.47A3.67,3.67,0,0,1,157.12,283.77Z" style="fill:#fff;opacity:0.5"></path><path d="M159.84,312.47l36-3.22a3.63,3.63,0,0,0,2.35-1.12l-22-14.66-18.88,18.32A3.68,3.68,0,0,0,159.84,312.47Z" style="fill:#407BFF"></path><path d="M159.84,312.47l36-3.22a3.63,3.63,0,0,0,2.35-1.12l-22-14.66-18.88,18.32A3.68,3.68,0,0,0,159.84,312.47Z" style="fill:#fff;opacity:0.7000000000000001"></path><path d="M176.68,298.7,195,280.88a3.76,3.76,0,0,0-1.92-.33l-36,3.22a3.72,3.72,0,0,0-1.84.67Z" style="fill:#407BFF"></path><path d="M176.68,298.7,195,280.88a3.76,3.76,0,0,0-1.92-.33l-36,3.22a3.72,3.72,0,0,0-1.84.67Z" style="fill:#fff;opacity:0.2"></path><path d="M181.1,303.58c10.09,2.17,20.62,2.72,30.71,4.89a3,3,0,0,1,2.3,3.73l-4.83,17.88a3.32,3.32,0,0,1-3.92,2.28c-10.09-2.17-20.63-2.71-30.72-4.89a3,3,0,0,1-2.3-3.73l4.83-17.88A3.32,3.32,0,0,1,181.1,303.58Z" style="fill:#407BFF"></path><path d="M181.1,303.58c10.09,2.17,20.62,2.72,30.71,4.89a3,3,0,0,1,2.3,3.73l-4.83,17.88a3.32,3.32,0,0,1-3.92,2.28c-10.09-2.17-20.63-2.71-30.72-4.89a3,3,0,0,1-2.3-3.73l4.83-17.88A3.32,3.32,0,0,1,181.1,303.58Z" style="fill:#fff;opacity:0.30000000000000004"></path><path d="M174.64,327.47c10.09,2.18,20.62,2.72,30.71,4.89a3.39,3.39,0,0,0,2.25-.28c-4.45-5.95-9.07-11.29-13.69-16.64-7.09,3.81-14.19,7.61-21.11,10.82A3,3,0,0,0,174.64,327.47Z" style="fill:#407BFF"></path><path d="M174.64,327.47c10.09,2.18,20.62,2.72,30.71,4.89a3.39,3.39,0,0,0,2.25-.28c-4.45-5.95-9.07-11.29-13.69-16.64-7.09,3.81-14.19,7.61-21.11,10.82A3,3,0,0,0,174.64,327.47Z" style="fill:#fff;opacity:0.5"></path><path d="M192.73,319.79c6.9-3.7,13.79-7.4,20.54-10.55a3,3,0,0,0-1.46-.77c-10.09-2.18-20.62-2.72-30.71-4.89a3.37,3.37,0,0,0-1.7.06C183.75,309.39,188.24,314.59,192.73,319.79Z" style="fill:#407BFF"></path><path d="M116.7,332.45a237.11,237.11,0,0,0-9,27.4A261.37,261.37,0,0,1,145.92,337,256.3,256.3,0,0,0,116.7,332.45Z" style="fill:#407BFF"></path><path d="M108.72,357.65a263,263,0,0,1,34.74-20.79,4,4,0,0,1,5.42,1.41l9.81,19.35A3.64,3.64,0,0,1,157,362.5a232.74,232.74,0,0,0-30.79,18.43,3.88,3.88,0,0,1-5.25-.73L107.58,363A3.77,3.77,0,0,1,108.72,357.65Z" style="fill:#407BFF"></path><path d="M108.72,357.65a263,263,0,0,1,34.74-20.79,4,4,0,0,1,5.42,1.41l9.81,19.35A3.64,3.64,0,0,1,157,362.5a232.74,232.74,0,0,0-30.79,18.43,3.88,3.88,0,0,1-5.25-.73L107.58,363A3.77,3.77,0,0,1,108.72,357.65Z" style="fill:#fff;opacity:0.5"></path><path d="M126.21,380.93A233.82,233.82,0,0,1,157,362.5a3.68,3.68,0,0,0,1.78-1.89,231.11,231.11,0,0,0-27-4.35,213.47,213.47,0,0,0-8.13,25.36A3.78,3.78,0,0,0,126.21,380.93Z" style="fill:#407BFF"></path><path d="M126.21,380.93A233.82,233.82,0,0,1,157,362.5a3.68,3.68,0,0,0,1.78-1.89,231.11,231.11,0,0,0-27-4.35,213.47,213.47,0,0,0-8.13,25.36A3.78,3.78,0,0,0,126.21,380.93Z" style="fill:#fff;opacity:0.7000000000000001"></path><path d="M134.63,360.73a222,222,0,0,1,11-24.36,4.61,4.61,0,0,0-2.14.49,264.6,264.6,0,0,0-34.73,20.78,4.47,4.47,0,0,0-1.41,1.64A237.24,237.24,0,0,1,134.63,360.73Z" style="fill:#407BFF"></path><path d="M134.63,360.73a222,222,0,0,1,11-24.36,4.61,4.61,0,0,0-2.14.49,264.6,264.6,0,0,0-34.73,20.78,4.47,4.47,0,0,0-1.41,1.64A237.24,237.24,0,0,1,134.63,360.73Z" style="fill:#fff;opacity:0.2"></path><path d="M219.28,304.47,255,309.86a3.65,3.65,0,0,1,3.12,4.14l-3.4,21.31a3.75,3.75,0,0,1-4.27,3L214.74,333a3.66,3.66,0,0,1-3.12-4.14L215,307.5A3.74,3.74,0,0,1,219.28,304.47Z" style="fill:#407BFF"></path><path d="M219.28,304.47,255,309.86a3.65,3.65,0,0,1,3.12,4.14l-3.4,21.31a3.75,3.75,0,0,1-4.27,3L214.74,333a3.66,3.66,0,0,1-3.12-4.14L215,307.5A3.74,3.74,0,0,1,219.28,304.47Z" style="fill:#fff;opacity:0.30000000000000004"></path><path d="M214.74,333l35.72,5.38a3.78,3.78,0,0,0,2.57-.53l-17.68-19.42-22.9,13.31A3.71,3.71,0,0,0,214.74,333Z" style="fill:#407BFF"></path><path d="M214.74,333l35.72,5.38a3.78,3.78,0,0,0,2.57-.53l-17.68-19.42-22.9,13.31A3.71,3.71,0,0,0,214.74,333Z" style="fill:#fff;opacity:0.5"></path><path d="M234.53,323.57l22.27-12.94a3.82,3.82,0,0,0-1.79-.78l-35.72-5.38a3.86,3.86,0,0,0-1.95.22Z" style="fill:#407BFF"></path><polygon points="235.34 324.11 208.9 322.61 210.92 289.05 237.36 290.56 235.34 324.11" style="fill:#fff"></polygon><polygon points="234.74 297.69 212.67 296.44 212.77 294.77 234.84 296.02 234.74 297.69" style="fill:#407BFF;opacity:0.30000000000000004"></polygon><polygon points="225.63 302.37 212.36 301.62 212.46 299.95 225.73 300.7 225.63 302.37" style="fill:#407BFF;opacity:0.30000000000000004"></polygon><polygon points="232.4 302.75 228.06 302.51 228.16 300.84 232.5 301.08 232.4 302.75" style="fill:#407BFF;opacity:0.30000000000000004"></polygon><polygon points="234.11 308.05 212.05 306.79 212.15 305.12 234.21 306.37 234.11 308.05" style="fill:#407BFF;opacity:0.30000000000000004"></polygon><polygon points="228.92 312.94 211.74 311.97 211.84 310.3 229.02 311.27 228.92 312.94" style="fill:#407BFF;opacity:0.30000000000000004"></polygon><polygon points="233.49 318.39 220.52 317.66 220.62 315.99 233.59 316.72 233.49 318.39" style="fill:#407BFF;opacity:0.30000000000000004"></polygon><polygon points="211.43 317.14 218.37 317.54 218.47 315.87 211.53 315.47 211.43 317.14" style="fill:#407BFF;opacity:0.30000000000000004"></polygon><polygon points="180.15 298.52 160.65 303.95 146.84 281.52 166.34 276.09 180.15 298.52" style="fill:#fff"></polygon><polygon points="167.71 281.4 151.44 285.93 150.76 284.81 167.03 280.28 167.71 281.4" style="fill:#407BFF;opacity:0.30000000000000004"></polygon><polygon points="163.36 286.66 153.57 289.39 152.89 288.27 162.67 285.55 163.36 286.66" style="fill:#407BFF;opacity:0.30000000000000004"></polygon><polygon points="168.35 285.27 165.15 286.16 164.46 285.05 167.66 284.15 168.35 285.27" style="fill:#407BFF;opacity:0.30000000000000004"></polygon><polygon points="171.97 288.32 155.7 292.85 155.01 291.73 171.28 287.2 171.97 288.32" style="fill:#407BFF;opacity:0.30000000000000004"></polygon><polygon points="170.5 292.78 157.83 296.31 157.15 295.19 169.81 291.66 170.5 292.78" style="fill:#407BFF;opacity:0.30000000000000004"></polygon><polygon points="176.23 295.23 166.67 297.9 165.98 296.78 175.54 294.12 176.23 295.23" style="fill:#407BFF;opacity:0.30000000000000004"></polygon><polygon points="159.96 299.76 165.08 298.34 164.39 297.22 159.27 298.65 159.96 299.76" style="fill:#407BFF;opacity:0.30000000000000004"></polygon><polygon points="251.44 274.69 239.16 293.83 272.12 284.96 251.44 274.69" style="fill:#407BFF"></polygon><path d="M240.43,292.41l29.85-8a3.23,3.23,0,0,1,3.94,2.16l5.07,17.81a3.11,3.11,0,0,1-2.22,3.82l-29.85,8a3.21,3.21,0,0,1-3.93-2.16l-5.08-17.8A3.11,3.11,0,0,1,240.43,292.41Z" style="fill:#407BFF"></path><path d="M240.43,292.41l29.85-8a3.23,3.23,0,0,1,3.94,2.16l5.07,17.81a3.11,3.11,0,0,1-2.22,3.82l-29.85,8a3.21,3.21,0,0,1-3.93-2.16l-5.08-17.8A3.11,3.11,0,0,1,240.43,292.41Z" style="fill:#fff;opacity:0.5"></path><path d="M247.22,316.21l29.85-8a3.18,3.18,0,0,0,1.81-1.29L258,297.77,245,316A3.23,3.23,0,0,0,247.22,316.21Z" style="fill:#407BFF"></path><path d="M247.22,316.21l29.85-8a3.18,3.18,0,0,0,1.81-1.29L258,297.77,245,316A3.23,3.23,0,0,0,247.22,316.21Z" style="fill:#fff;opacity:0.7000000000000001"></path><path d="M259.27,302.1,272,284.37a3.16,3.16,0,0,0-1.67,0l-29.85,8a3.16,3.16,0,0,0-1.44.84Z" style="fill:#407BFF"></path><path d="M259.27,302.1,272,284.37a3.16,3.16,0,0,0-1.67,0l-29.85,8a3.16,3.16,0,0,0-1.44.84Z" style="fill:#fff;opacity:0.2"></path><path d="M249.79,310.87c11.91-1.86,23.57-5.68,35.48-7.53a3.61,3.61,0,0,1,4.15,3.09q1.33,10.69,2.68,21.41a3.78,3.78,0,0,1-3.25,4.11c-11.91,1.85-23.57,5.67-35.48,7.53a3.62,3.62,0,0,1-4.14-3.1q-1.35-10.69-2.68-21.41A3.76,3.76,0,0,1,249.79,310.87Z" style="fill:#407BFF"></path><path d="M249.79,310.87c11.91-1.86,23.57-5.68,35.48-7.53a3.61,3.61,0,0,1,4.15,3.09q1.33,10.69,2.68,21.41a3.78,3.78,0,0,1-3.25,4.11c-11.91,1.85-23.57,5.67-35.48,7.53a3.62,3.62,0,0,1-4.14-3.1q-1.35-10.69-2.68-21.41A3.76,3.76,0,0,1,249.79,310.87Z" style="fill:#fff;opacity:0.30000000000000004"></path><path d="M253.38,339.48c11.9-1.86,23.56-5.67,35.47-7.53a3.93,3.93,0,0,0,2.32-1.25c-7.47-4.59-14.85-8.45-22.23-12.32-6,7.09-12,14.18-18.11,20.55A3.6,3.6,0,0,0,253.38,339.48Z" style="fill:#407BFF"></path><path d="M253.38,339.48c11.9-1.86,23.56-5.67,35.47-7.53a3.93,3.93,0,0,0,2.32-1.25c-7.47-4.59-14.85-8.45-22.23-12.32-6,7.09-12,14.18-18.11,20.55A3.6,3.6,0,0,0,253.38,339.48Z" style="fill:#fff;opacity:0.5"></path><path d="M269.59,323.58c5.84-6.89,11.69-13.78,17.61-20a3.68,3.68,0,0,0-1.93-.23c-11.91,1.86-23.57,5.67-35.47,7.53a3.9,3.9,0,0,0-1.81.78C255.24,316.06,262.42,319.82,269.59,323.58Z" style="fill:#407BFF"></path><path d="M284.17,298.39l25.15,9.15c8.13-9.18,4.18-22.75,12.3-31.92l-25.15-9.15C288.35,275.65,292.3,289.22,284.17,298.39Z" style="fill:#fff"></path><path d="M290.08,292.66l21,7.63c-.2.53-.42,1.06-.66,1.58l-21-7.63C289.66,293.72,289.88,293.19,290.08,292.66Z" style="fill:#407BFF;opacity:0.30000000000000004"></path><path d="M299.9,290.62l12.63,4.59c-.12.56-.26,1.12-.4,1.67l-12.62-4.59C299.65,291.74,299.78,291.18,299.9,290.62Z" style="fill:#407BFF;opacity:0.30000000000000004"></path><path d="M293.46,288.28l4.14,1.5c-.13.56-.26,1.12-.4,1.67l-4.13-1.5C293.21,289.4,293.34,288.84,293.46,288.28Z" style="fill:#407BFF;opacity:0.30000000000000004"></path><path d="M292.56,282.34l21,7.63c-.11.57-.21,1.13-.31,1.7l-21-7.63C292.35,283.47,292.45,282.91,292.56,282.34Z" style="fill:#407BFF;opacity:0.30000000000000004"></path><path d="M298.31,278.82l16.34,5.94c-.14.55-.27,1.11-.4,1.67l-16.34-5.94C298,279.93,298.17,279.37,298.31,278.82Z" style="fill:#407BFF;opacity:0.30000000000000004"></path><path d="M295.38,272.14l12.34,4.49c-.24.51-.45,1-.66,1.57l-12.33-4.48C294.93,273.19,295.15,272.66,295.38,272.14Z" style="fill:#407BFF;opacity:0.30000000000000004"></path><path d="M316.37,279.77l-6.6-2.4c-.24.52-.45,1-.66,1.58l6.61,2.4C315.92,280.82,316.14,280.29,316.37,279.77Z" style="fill:#407BFF;opacity:0.30000000000000004"></path><path d="M312.86,291.88A252.78,252.78,0,0,0,287,305.77a266.22,266.22,0,0,1,43.89,8.93A243.72,243.72,0,0,0,312.86,291.88Z" style="fill:#407BFF"></path><path d="M289.23,304.83A268.12,268.12,0,0,1,329.16,313a3.85,3.85,0,0,1,2.94,4.65q-3.3,10.31-6.58,20.6a3.84,3.84,0,0,1-4.69,2.42,236.58,236.58,0,0,0-35.4-7.21,3.72,3.72,0,0,1-3.29-4l2.49-21.43A3.94,3.94,0,0,1,289.23,304.83Z" style="fill:#407BFF"></path><path d="M289.23,304.83A268.12,268.12,0,0,1,329.16,313a3.85,3.85,0,0,1,2.94,4.65q-3.3,10.31-6.58,20.6a3.84,3.84,0,0,1-4.69,2.42,236.58,236.58,0,0,0-35.4-7.21,3.72,3.72,0,0,1-3.29-4l2.49-21.43A3.94,3.94,0,0,1,289.23,304.83Z" style="fill:#fff;opacity:0.5"></path><path d="M285.43,333.41a236.58,236.58,0,0,1,35.4,7.21,3.85,3.85,0,0,0,2.62-.19A217.2,217.2,0,0,0,307,319.25a223.35,223.35,0,0,0-23.86,13A3.78,3.78,0,0,0,285.43,333.41Z" style="fill:#407BFF"></path><path d="M285.43,333.41a236.58,236.58,0,0,1,35.4,7.21,3.85,3.85,0,0,0,2.62-.19A217.2,217.2,0,0,0,307,319.25a223.35,223.35,0,0,0-23.86,13A3.78,3.78,0,0,0,285.43,333.41Z" style="fill:#fff;opacity:0.7000000000000001"></path><path d="M305.85,324.38A237,237,0,0,1,331.06,314a4.66,4.66,0,0,0-1.9-1.07,268.12,268.12,0,0,0-39.93-8.12,4.52,4.52,0,0,0-2.18.24A227.23,227.23,0,0,1,305.85,324.38Z" style="fill:#407BFF"></path><path d="M305.85,324.38A237,237,0,0,1,331.06,314a4.66,4.66,0,0,0-1.9-1.07,268.12,268.12,0,0,0-39.93-8.12,4.52,4.52,0,0,0-2.18.24A227.23,227.23,0,0,1,305.85,324.38Z" style="fill:#fff;opacity:0.2"></path><path d="M175.21,236.37a171.18,171.18,0,0,0-9.34,18.81,191.85,191.85,0,0,1,29.87-12.62A184.18,184.18,0,0,0,175.21,236.37Z" style="fill:#407BFF"></path><path d="M166.8,253.7A192.31,192.31,0,0,1,194,242.21a2.9,2.9,0,0,1,3.75,1.55q2.5,7.45,5,14.9A2.68,2.68,0,0,1,201,262a171.28,171.28,0,0,0-24.1,10.18,2.81,2.81,0,0,1-3.7-1l-7.8-13.73A2.75,2.75,0,0,1,166.8,253.7Z" style="fill:#407BFF"></path><path d="M166.8,253.7A192.31,192.31,0,0,1,194,242.21a2.9,2.9,0,0,1,3.75,1.55q2.5,7.45,5,14.9A2.68,2.68,0,0,1,201,262a171.28,171.28,0,0,0-24.1,10.18,2.81,2.81,0,0,1-3.7-1l-7.8-13.73A2.75,2.75,0,0,1,166.8,253.7Z" style="fill:#fff;opacity:0.5"></path><path d="M176.92,272.19A172.47,172.47,0,0,1,201,262a2.7,2.7,0,0,0,1.48-1.18A165.28,165.28,0,0,0,183.55,255,156.44,156.44,0,0,0,175,272.44,2.75,2.75,0,0,0,176.92,272.19Z" style="fill:#407BFF"></path><path d="M176.92,272.19A172.47,172.47,0,0,1,201,262a2.7,2.7,0,0,0,1.48-1.18A165.28,165.28,0,0,0,183.55,255,156.44,156.44,0,0,0,175,272.44,2.75,2.75,0,0,0,176.92,272.19Z" style="fill:#fff;opacity:0.7000000000000001"></path><path d="M185.12,258.5a161.62,161.62,0,0,1,10.46-16.43,3.35,3.35,0,0,0-1.59.14A191.15,191.15,0,0,0,166.8,253.7a3.24,3.24,0,0,0-1.19,1A173.52,173.52,0,0,1,185.12,258.5Z" style="fill:#407BFF"></path><path d="M185.12,258.5a161.62,161.62,0,0,1,10.46-16.43,3.35,3.35,0,0,0-1.59.14A191.15,191.15,0,0,0,166.8,253.7a3.24,3.24,0,0,0-1.19,1A173.52,173.52,0,0,1,185.12,258.5Z" style="fill:#fff;opacity:0.2"></path><path d="M402,271.44c-1.19-.43-2.4-.85-3.61-1.26l.29-.83c1.22.41,2.44.83,3.64,1.27Z" style="fill:#407BFF"></path><path d="M395.59,269.28c-2.74-.84-5.55-1.61-8.34-2.28l.21-.85c2.82.67,5.65,1.45,8.41,2.3Z" style="fill:#407BFF"></path><path d="M386.7,269.13a124.06,124.06,0,0,0-6.59,13.28,136.32,136.32,0,0,1,21.09-8.91A132.17,132.17,0,0,0,386.7,269.13Z" style="fill:#407BFF"></path><path d="M380.77,281.37A136.62,136.62,0,0,1,400,273.25a2.06,2.06,0,0,1,2.65,1.1l3.54,10.52a1.88,1.88,0,0,1-1.22,2.36,120.72,120.72,0,0,0-17,7.19,2,2,0,0,1-2.61-.74q-2.74-4.85-5.51-9.68A2,2,0,0,1,380.77,281.37Z" style="fill:#407BFF"></path><path d="M380.77,281.37A136.62,136.62,0,0,1,400,273.25a2.06,2.06,0,0,1,2.65,1.1l3.54,10.52a1.88,1.88,0,0,1-1.22,2.36,120.72,120.72,0,0,0-17,7.19,2,2,0,0,1-2.61-.74q-2.74-4.85-5.51-9.68A2,2,0,0,1,380.77,281.37Z" style="fill:#fff;opacity:0.5"></path><path d="M387.92,294.42a121.79,121.79,0,0,1,17-7.19,1.92,1.92,0,0,0,1-.83,117.59,117.59,0,0,0-13.37-4.11,110,110,0,0,0-6,12.31A2,2,0,0,0,387.92,294.42Z" style="fill:#407BFF"></path><path d="M387.92,294.42a121.79,121.79,0,0,1,17-7.19,1.92,1.92,0,0,0,1-.83,117.59,117.59,0,0,0-13.37-4.11,110,110,0,0,0-6,12.31A2,2,0,0,0,387.92,294.42Z" style="fill:#fff;opacity:0.7000000000000001"></path><path d="M393.7,284.76a115.63,115.63,0,0,1,7.38-11.6,2.4,2.4,0,0,0-1.12.09,137.77,137.77,0,0,0-19.19,8.11,2.33,2.33,0,0,0-.84.74A119.35,119.35,0,0,1,393.7,284.76Z" style="fill:#407BFF"></path><path d="M393.7,284.76a115.63,115.63,0,0,1,7.38-11.6,2.4,2.4,0,0,0-1.12.09,137.77,137.77,0,0,0-19.19,8.11,2.33,2.33,0,0,0-.84.74A119.35,119.35,0,0,1,393.7,284.76Z" style="fill:#fff;opacity:0.2"></path><polygon points="338.62 259.55 352.53 270.04 322.15 268.13 338.62 259.55" style="fill:#407BFF"></polygon><path d="M351.18,269.3l-27.51-1.73c-1.56-.1-3,.7-3.1,1.76L319,280.87c-.14,1.06,1,2,2.58,2.12l27.51,1.73c1.56.09,3-.7,3.1-1.77l1.56-11.53C353.9,270.35,352.74,269.4,351.18,269.3Z" style="fill:#407BFF"></path><path d="M351.18,269.3l-27.51-1.73c-1.56-.1-3,.7-3.1,1.76L319,280.87c-.14,1.06,1,2,2.58,2.12l27.51,1.73c1.56.09,3-.7,3.1-1.77l1.56-11.53C353.9,270.35,352.74,269.4,351.18,269.3Z" style="fill:#fff;opacity:0.5"></path><path d="M349.1,284.72,321.59,283a3.53,3.53,0,0,1-1.8-.6l16.81-7.88L351,284.35A3.88,3.88,0,0,1,349.1,284.72Z" style="fill:#407BFF"></path><path d="M349.1,284.72,321.59,283a3.53,3.53,0,0,1-1.8-.6l16.81-7.88L351,284.35A3.88,3.88,0,0,1,349.1,284.72Z" style="fill:#fff;opacity:0.7000000000000001"></path><path d="M336.23,277.32l-14-9.57a3.89,3.89,0,0,1,1.47-.18l27.51,1.73a3.61,3.61,0,0,1,1.4.36Z" style="fill:#407BFF"></path><path d="M336.23,277.32l-14-9.57a3.89,3.89,0,0,1,1.47-.18l27.51,1.73a3.61,3.61,0,0,1,1.4.36Z" style="fill:#fff;opacity:0.2"></path><path d="M283.12,286.51A245.32,245.32,0,0,0,259,302.43a263.54,263.54,0,0,1,43.94,4.92A238.18,238.18,0,0,0,283.12,286.51Z" style="fill:#407BFF"></path><path d="M261.11,301.3a265.45,265.45,0,0,1,40,4.48,3.8,3.8,0,0,1,3.32,4.3q-2.28,10.41-4.55,20.82a3.74,3.74,0,0,1-4.38,2.78,235.55,235.55,0,0,0-35.44-4,3.69,3.69,0,0,1-3.61-3.67l.45-21.28A3.86,3.86,0,0,1,261.11,301.3Z" style="fill:#407BFF"></path><path d="M261.11,301.3a265.45,265.45,0,0,1,40,4.48,3.8,3.8,0,0,1,3.32,4.3q-2.28,10.41-4.55,20.82a3.74,3.74,0,0,1-4.38,2.78,235.55,235.55,0,0,0-35.44-4,3.69,3.69,0,0,1-3.61-3.67l.45-21.28A3.86,3.86,0,0,1,261.11,301.3Z" style="fill:#fff;opacity:0.5"></path><path d="M260,329.72a235.54,235.54,0,0,1,35.44,4,3.74,3.74,0,0,0,2.56-.41,216,216,0,0,0-18.17-19.36,219.71,219.71,0,0,0-22.23,14.84A3.76,3.76,0,0,0,260,329.72Z" style="fill:#407BFF"></path><path d="M260,329.72a235.54,235.54,0,0,1,35.44,4,3.74,3.74,0,0,0,2.56-.41,216,216,0,0,0-18.17-19.36,219.71,219.71,0,0,0-22.23,14.84A3.76,3.76,0,0,0,260,329.72Z" style="fill:#fff;opacity:0.7000000000000001"></path><path d="M279.26,319.05a230.83,230.83,0,0,1,23.79-12.39,4.4,4.4,0,0,0-2-.88,264.17,264.17,0,0,0-40-4.48,4.53,4.53,0,0,0-2.12.43A226.68,226.68,0,0,1,279.26,319.05Z" style="fill:#407BFF"></path><path d="M279.26,319.05a230.83,230.83,0,0,1,23.79-12.39,4.4,4.4,0,0,0-2-.88,264.17,264.17,0,0,0-40-4.48,4.53,4.53,0,0,0-2.12.43A226.68,226.68,0,0,1,279.26,319.05Z" style="fill:#fff;opacity:0.2"></path><path d="M389.75,372.32,359,353.83a3.8,3.8,0,0,0-5.13,1.17l-11.69,18.32a3.58,3.58,0,0,0,1.2,5l30.71,18.48a3.79,3.79,0,0,0,5.13-1.17L391,377.31A3.58,3.58,0,0,0,389.75,372.32Z" style="fill:#407BFF"></path><path d="M389.75,372.32,359,353.83a3.8,3.8,0,0,0-5.13,1.17l-11.69,18.32a3.58,3.58,0,0,0,1.2,5l30.71,18.48a3.79,3.79,0,0,0,5.13-1.17L391,377.31A3.58,3.58,0,0,0,389.75,372.32Z" style="fill:#fff;opacity:0.30000000000000004"></path><path d="M374.12,396.79l-30.7-18.48a3.62,3.62,0,0,1-1.59-2l26.41-3.57,8.46,24.56A3.72,3.72,0,0,1,374.12,396.79Z" style="fill:#407BFF"></path><path d="M374.12,396.79l-30.7-18.48a3.62,3.62,0,0,1-1.59-2l26.41-3.57,8.46,24.56A3.72,3.72,0,0,1,374.12,396.79Z" style="fill:#fff;opacity:0.5"></path><path d="M365.4,377.18l-8.23-23.89a3.74,3.74,0,0,1,1.87.54l30.7,18.49a3.64,3.64,0,0,1,1.34,1.39Z" style="fill:#407BFF"></path><path d="M335.26,320.91l-25.84-15.56a3.2,3.2,0,0,0-4.32,1l-9.84,15.42a3,3,0,0,0,1,4.2l25.84,15.56a3.21,3.21,0,0,0,4.33-1l9.84-15.41A3,3,0,0,0,335.26,320.91Z" style="fill:#407BFF"></path><path d="M335.26,320.91l-25.84-15.56a3.2,3.2,0,0,0-4.32,1l-9.84,15.42a3,3,0,0,0,1,4.2l25.84,15.56a3.21,3.21,0,0,0,4.33-1l9.84-15.41A3,3,0,0,0,335.26,320.91Z" style="fill:#fff;opacity:0.30000000000000004"></path><path d="M322.11,341.51,296.27,326a3,3,0,0,1-1.34-1.7l22.23-3,7.12,20.67A3.12,3.12,0,0,1,322.11,341.51Z" style="fill:#407BFF"></path><path d="M322.11,341.51,296.27,326a3,3,0,0,1-1.34-1.7l22.23-3,7.12,20.67A3.12,3.12,0,0,1,322.11,341.51Z" style="fill:#fff;opacity:0.5"></path><path d="M314.77,325l-6.93-20.1a3,3,0,0,1,1.58.45l25.84,15.56a3,3,0,0,1,1.12,1.17Z" style="fill:#407BFF"></path><path d="M387.3,346.5l-18.44,4.71a1.92,1.92,0,0,0-1.41,2.34l3,11a2,2,0,0,0,2.4,1.36l18.44-4.71a1.92,1.92,0,0,0,1.41-2.34l-3-11A2,2,0,0,0,387.3,346.5Z" style="fill:#407BFF"></path><path d="M387.3,346.5l-18.44,4.71a1.92,1.92,0,0,0-1.41,2.34l3,11a2,2,0,0,0,2.4,1.36l18.44-4.71a1.92,1.92,0,0,0,1.41-2.34l-3-11A2,2,0,0,0,387.3,346.5Z" style="fill:#fff;opacity:0.30000000000000004"></path><path d="M391.28,361.2l-18.44,4.71a1.89,1.89,0,0,1-1.37-.14l8.18-11.12,12.76,5.77A1.93,1.93,0,0,1,391.28,361.2Z" style="fill:#407BFF"></path><path d="M391.28,361.2l-18.44,4.71a1.89,1.89,0,0,1-1.37-.14l8.18-11.12,12.76,5.77A1.93,1.93,0,0,1,391.28,361.2Z" style="fill:#fff;opacity:0.5"></path><path d="M380.37,357.32,368,351.71a2,2,0,0,1,.9-.5l18.44-4.72a2,2,0,0,1,1,0Z" style="fill:#407BFF"></path><path d="M187.12,353.64l-30.39-4.51a3.17,3.17,0,0,0-3.62,2.58l-2.85,18.13a3.09,3.09,0,0,0,2.66,3.51l30.39,4.52a3.19,3.19,0,0,0,3.62-2.58l2.85-18.14A3.11,3.11,0,0,0,187.12,353.64Z" style="fill:#407BFF"></path><path d="M187.12,353.64l-30.39-4.51a3.17,3.17,0,0,0-3.62,2.58l-2.85,18.13a3.09,3.09,0,0,0,2.66,3.51l30.39,4.52a3.19,3.19,0,0,0,3.62-2.58l2.85-18.14A3.11,3.11,0,0,0,187.12,353.64Z" style="fill:#fff;opacity:0.30000000000000004"></path><path d="M183.31,377.87l-30.39-4.51a3.18,3.18,0,0,1-1.95-1.07l19.45-11.36,15.07,16.49A3.19,3.19,0,0,1,183.31,377.87Z" style="fill:#407BFF"></path><path d="M183.31,377.87l-30.39-4.51a3.18,3.18,0,0,1-1.95-1.07l19.45-11.36,15.07,16.49A3.19,3.19,0,0,1,183.31,377.87Z" style="fill:#fff;opacity:0.5"></path><path d="M169.73,365.34l-14.65-16a3.27,3.27,0,0,1,1.65-.19l30.39,4.52a3.08,3.08,0,0,1,1.52.66Z" style="fill:#407BFF"></path><path d="M346.38,350.14c-12.4,2.68-25.34,3.34-37.73,6a3.71,3.71,0,0,0-2.83,4.59q3,11,5.93,22a4.09,4.09,0,0,0,4.82,2.8c12.4-2.67,25.34-3.34,37.74-6a3.71,3.71,0,0,0,2.82-4.59q-3-11-5.93-22A4.09,4.09,0,0,0,346.38,350.14Z" style="fill:#407BFF"></path><path d="M346.38,350.14c-12.4,2.68-25.34,3.34-37.73,6a3.71,3.71,0,0,0-2.83,4.59q3,11,5.93,22a4.09,4.09,0,0,0,4.82,2.8c12.4-2.67,25.34-3.34,37.74-6a3.71,3.71,0,0,0,2.82-4.59q-3-11-5.93-22A4.09,4.09,0,0,0,346.38,350.14Z" style="fill:#fff;opacity:0.30000000000000004"></path><path d="M354.31,379.5c-12.4,2.67-25.34,3.34-37.74,6a4.13,4.13,0,0,1-2.76-.35c5.48-7.3,11.15-13.87,16.83-20.44,8.71,4.67,17.42,9.35,25.94,13.29A3.69,3.69,0,0,1,354.31,379.5Z" style="fill:#407BFF"></path><path d="M354.31,379.5c-12.4,2.67-25.34,3.34-37.74,6a4.13,4.13,0,0,1-2.76-.35c5.48-7.3,11.15-13.87,16.83-20.44,8.71,4.67,17.42,9.35,25.94,13.29A3.69,3.69,0,0,1,354.31,379.5Z" style="fill:#fff;opacity:0.5"></path><path d="M332.08,370.06c-8.47-4.55-16.94-9.09-25.23-13a3.7,3.7,0,0,1,1.79-1c12.4-2.67,25.34-3.34,37.74-6a4.29,4.29,0,0,1,2.08.08C343.12,357.28,337.6,363.67,332.08,370.06Z" style="fill:#407BFF"></path><path d="M281.81,322.45a248.67,248.67,0,0,1,24.46,16.13,267.08,267.08,0,0,0-44.5,5A245.76,245.76,0,0,1,281.81,322.45Z" style="fill:#407BFF"></path><path d="M304.11,337.44a268.6,268.6,0,0,0-40.5,4.53,3.86,3.86,0,0,0-3.36,4.36q2.31,10.55,4.61,21.08a3.79,3.79,0,0,0,4.43,2.82,237.76,237.76,0,0,1,35.9-4,3.75,3.75,0,0,0,3.66-3.73l-.45-21.55A3.92,3.92,0,0,0,304.11,337.44Z" style="fill:#407BFF"></path><path d="M304.11,337.44a268.6,268.6,0,0,0-40.5,4.53,3.86,3.86,0,0,0-3.36,4.36q2.31,10.55,4.61,21.08a3.79,3.79,0,0,0,4.43,2.82,237.76,237.76,0,0,1,35.9-4,3.75,3.75,0,0,0,3.66-3.73l-.45-21.55A3.92,3.92,0,0,0,304.11,337.44Z" style="fill:#fff;opacity:0.5"></path><path d="M305.19,366.22a237.63,237.63,0,0,0-35.9,4,3.89,3.89,0,0,1-2.59-.42,218.88,218.88,0,0,1,18.41-19.61,222.46,222.46,0,0,1,22.51,15A3.85,3.85,0,0,1,305.19,366.22Z" style="fill:#407BFF"></path><path d="M305.19,366.22a237.63,237.63,0,0,0-35.9,4,3.89,3.89,0,0,1-2.59-.42,218.88,218.88,0,0,1,18.41-19.61,222.46,222.46,0,0,1,22.51,15A3.85,3.85,0,0,1,305.19,366.22Z" style="fill:#fff;opacity:0.7000000000000001"></path><path d="M285.72,355.42a232.66,232.66,0,0,0-24.09-12.55,4.4,4.4,0,0,1,2-.9,268.62,268.62,0,0,1,40.49-4.53,4.6,4.6,0,0,1,2.15.43A229.51,229.51,0,0,0,285.72,355.42Z" style="fill:#407BFF"></path><path d="M285.72,355.42a232.66,232.66,0,0,0-24.09-12.55,4.4,4.4,0,0,1,2-.9,268.62,268.62,0,0,1,40.49-4.53,4.6,4.6,0,0,1,2.15.43A229.51,229.51,0,0,0,285.72,355.42Z" style="fill:#fff;opacity:0.2"></path><path d="M293.9,345.21l-35.7,5.38a3.64,3.64,0,0,0-3.11,4.13l3.4,21.3a3.71,3.71,0,0,0,4.25,3l35.7-5.37a3.66,3.66,0,0,0,3.12-4.14l-3.4-21.29A3.74,3.74,0,0,0,293.9,345.21Z" style="fill:#407BFF"></path><path d="M293.9,345.21l-35.7,5.38a3.64,3.64,0,0,0-3.11,4.13l3.4,21.3a3.71,3.71,0,0,0,4.25,3l35.7-5.37a3.66,3.66,0,0,0,3.12-4.14l-3.4-21.29A3.74,3.74,0,0,0,293.9,345.21Z" style="fill:#fff;opacity:0.30000000000000004"></path><path d="M298.44,373.67l-35.69,5.38a3.78,3.78,0,0,1-2.57-.53l17.66-19.41,22.88,13.3A3.66,3.66,0,0,1,298.44,373.67Z" style="fill:#407BFF"></path><path d="M298.44,373.67l-35.69,5.38a3.78,3.78,0,0,1-2.57-.53l17.66-19.41,22.88,13.3A3.66,3.66,0,0,1,298.44,373.67Z" style="fill:#fff;opacity:0.5"></path><path d="M278.67,364.29l-22.25-12.93a3.68,3.68,0,0,1,1.78-.77l35.7-5.38a3.72,3.72,0,0,1,1.94.22Z" style="fill:#407BFF"></path><polygon points="304.17 388.98 273.3 379.64 285.87 340.45 316.74 349.8 304.17 388.98" style="fill:#fff"></polygon><polygon points="311.47 357.5 285.7 349.71 286.33 347.75 312.09 355.55 311.47 357.5" style="fill:#407BFF;opacity:0.30000000000000004"></polygon><polygon points="299.26 360.44 283.76 355.75 284.39 353.8 299.89 358.49 299.26 360.44" style="fill:#407BFF;opacity:0.30000000000000004"></polygon><polygon points="307.17 362.83 302.09 361.3 302.72 359.35 307.79 360.88 307.17 362.83" style="fill:#407BFF;opacity:0.30000000000000004"></polygon><polygon points="307.59 369.59 281.82 361.79 282.45 359.84 308.21 367.64 307.59 369.59" style="fill:#407BFF;opacity:0.30000000000000004"></polygon><polygon points="299.95 373.91 279.88 367.84 280.51 365.88 300.57 371.96 299.95 373.91" style="fill:#407BFF;opacity:0.30000000000000004"></polygon><polygon points="303.71 381.68 288.57 377.09 289.19 375.14 304.34 379.73 303.71 381.68" style="fill:#407BFF;opacity:0.30000000000000004"></polygon><polygon points="277.95 373.88 286.05 376.33 286.68 374.38 278.57 371.93 277.95 373.88" style="fill:#407BFF;opacity:0.30000000000000004"></polygon><polygon points="261.77 315.45 274.04 334.57 241.11 325.71 261.77 315.45" style="fill:#407BFF"></polygon><path d="M272.77,333.16l-29.82-8a3.22,3.22,0,0,0-3.94,2.16l-5.07,17.79a3.1,3.1,0,0,0,2.22,3.82l29.83,8a3.22,3.22,0,0,0,3.93-2.16L275,337A3.1,3.1,0,0,0,272.77,333.16Z" style="fill:#407BFF"></path><path d="M272.77,333.16l-29.82-8a3.22,3.22,0,0,0-3.94,2.16l-5.07,17.79a3.1,3.1,0,0,0,2.22,3.82l29.83,8a3.22,3.22,0,0,0,3.93-2.16L275,337A3.1,3.1,0,0,0,272.77,333.16Z" style="fill:#fff;opacity:0.5"></path><path d="M266,356.93l-29.82-8a3.15,3.15,0,0,1-1.81-1.3l20.84-9.1,13,18.22A3.23,3.23,0,0,1,266,356.93Z" style="fill:#407BFF"></path><path d="M266,356.93l-29.82-8a3.15,3.15,0,0,1-1.81-1.3l20.84-9.1,13,18.22A3.23,3.23,0,0,1,266,356.93Z" style="fill:#fff;opacity:0.7000000000000001"></path><path d="M254,342.84l-12.68-17.71a3.19,3.19,0,0,1,1.68,0l29.82,8a3.15,3.15,0,0,1,1.44.83Z" style="fill:#407BFF"></path><path d="M254,342.84l-12.68-17.71a3.19,3.19,0,0,1,1.68,0l29.82,8a3.15,3.15,0,0,1,1.44.83Z" style="fill:#fff;opacity:0.2"></path><path d="M263.41,351.6c-11.89-1.86-23.55-5.67-35.44-7.53a3.61,3.61,0,0,0-4.15,3.09l-2.67,21.39a3.78,3.78,0,0,0,3.24,4.11c11.9,1.86,23.55,5.67,35.45,7.52a3.61,3.61,0,0,0,4.14-3.09q1.33-10.69,2.68-21.39A3.76,3.76,0,0,0,263.41,351.6Z" style="fill:#407BFF"></path><path d="M263.41,351.6c-11.89-1.86-23.55-5.67-35.44-7.53a3.61,3.61,0,0,0-4.15,3.09l-2.67,21.39a3.78,3.78,0,0,0,3.24,4.11c11.9,1.86,23.55,5.67,35.45,7.52a3.61,3.61,0,0,0,4.14-3.09q1.33-10.69,2.68-21.39A3.76,3.76,0,0,0,263.41,351.6Z" style="fill:#fff;opacity:0.30000000000000004"></path><path d="M259.83,380.18c-11.89-1.85-23.54-5.66-35.44-7.52a3.82,3.82,0,0,1-2.31-1.25c7.46-4.58,14.83-8.44,22.2-12.31,6,7.08,12,14.17,18.1,20.54A3.59,3.59,0,0,1,259.83,380.18Z" style="fill:#407BFF"></path><path d="M259.83,380.18c-11.89-1.85-23.54-5.66-35.44-7.52a3.82,3.82,0,0,1-2.31-1.25c7.46-4.58,14.83-8.44,22.2-12.31,6,7.08,12,14.17,18.1,20.54A3.59,3.59,0,0,1,259.83,380.18Z" style="fill:#fff;opacity:0.5"></path><path d="M243.63,364.3c-5.83-6.88-11.67-13.77-17.59-20a3.49,3.49,0,0,1,1.93-.23c11.89,1.86,23.55,5.67,35.44,7.52a4.05,4.05,0,0,1,1.81.78C258,356.79,250.8,360.54,243.63,364.3Z" style="fill:#407BFF"></path><path d="M151.85,361.62a252.39,252.39,0,0,1,25.88,13.88,267,267,0,0,0-43.85,8.93A243.35,243.35,0,0,1,151.85,361.62Z" style="fill:#407BFF"></path><path d="M175.46,374.56a269,269,0,0,0-39.9,8.12,3.84,3.84,0,0,0-2.93,4.65q3.28,10.29,6.58,20.58a3.81,3.81,0,0,0,4.68,2.41,237.43,237.43,0,0,1,35.37-7.2,3.71,3.71,0,0,0,3.29-4l-2.49-21.42A3.94,3.94,0,0,0,175.46,374.56Z" style="fill:#407BFF"></path><path d="M175.46,374.56a269,269,0,0,0-39.9,8.12,3.84,3.84,0,0,0-2.93,4.65q3.28,10.29,6.58,20.58a3.81,3.81,0,0,0,4.68,2.41,237.43,237.43,0,0,1,35.37-7.2,3.71,3.71,0,0,0,3.29-4l-2.49-21.42A3.94,3.94,0,0,0,175.46,374.56Z" style="fill:#fff;opacity:0.5"></path><path d="M179.26,403.12a237.43,237.43,0,0,0-35.37,7.2,3.79,3.79,0,0,1-2.62-.18A217,217,0,0,1,157.75,389a225.76,225.76,0,0,1,23.84,13A3.76,3.76,0,0,1,179.26,403.12Z" style="fill:#407BFF"></path><path d="M179.26,403.12a237.43,237.43,0,0,0-35.37,7.2,3.79,3.79,0,0,1-2.62-.18A217,217,0,0,1,157.75,389a225.76,225.76,0,0,1,23.84,13A3.76,3.76,0,0,1,179.26,403.12Z" style="fill:#fff;opacity:0.7000000000000001"></path><path d="M158.85,394.1a234.35,234.35,0,0,0-25.18-10.35,4.58,4.58,0,0,1,1.89-1.07,267.73,267.73,0,0,1,39.9-8.12,4.64,4.64,0,0,1,2.18.24A230,230,0,0,0,158.85,394.1Z" style="fill:#407BFF"></path><path d="M158.85,394.1a234.35,234.35,0,0,0-25.18-10.35,4.58,4.58,0,0,1,1.89-1.07,267.73,267.73,0,0,1,39.9-8.12,4.64,4.64,0,0,1,2.18.24A230,230,0,0,0,158.85,394.1Z" style="fill:#fff;opacity:0.2"></path><path d="M101.47,381.22l41.39,2.49a4.22,4.22,0,0,1,4,4.41l-1.57,24.7a4.25,4.25,0,0,1-4.54,3.89l-41.4-2.49a4.22,4.22,0,0,1-4-4.41l1.58-24.7A4.26,4.26,0,0,1,101.47,381.22Z" style="fill:#407BFF"></path><path d="M101.47,381.22l41.39,2.49a4.22,4.22,0,0,1,4,4.41l-1.57,24.7a4.25,4.25,0,0,1-4.54,3.89l-41.4-2.49a4.22,4.22,0,0,1-4-4.41l1.58-24.7A4.26,4.26,0,0,1,101.47,381.22Z" style="fill:#fff;opacity:0.30000000000000004"></path><path d="M99.37,414.22l41.39,2.5a4.34,4.34,0,0,0,2.87-.87l-22.29-20.38L96.62,413A4.26,4.26,0,0,0,99.37,414.22Z" style="fill:#407BFF"></path><path d="M99.37,414.22l41.39,2.5a4.34,4.34,0,0,0,2.87-.87l-22.29-20.38L96.62,413A4.26,4.26,0,0,0,99.37,414.22Z" style="fill:#fff;opacity:0.5"></path><path d="M121,401.48l24-17.06a4.29,4.29,0,0,0-2.12-.71l-41.4-2.49a4.29,4.29,0,0,0-2.2.44Z" style="fill:#407BFF"></path><path d="M235.56,313.8l-36.18,7.83a2.22,2.22,0,0,0-1.43,3.62l9.46,14.88a5.27,5.27,0,0,0,5.14,2.2l36.18-7.83a2.22,2.22,0,0,0,1.43-3.62L240.7,316A5.27,5.27,0,0,0,235.56,313.8Z" style="fill:#407BFF"></path><path d="M235.56,313.8l-36.18,7.83a2.22,2.22,0,0,0-1.43,3.62l9.46,14.88a5.27,5.27,0,0,0,5.14,2.2l36.18-7.83a2.22,2.22,0,0,0,1.43-3.62L240.7,316A5.27,5.27,0,0,0,235.56,313.8Z" style="fill:#fff;opacity:0.30000000000000004"></path><path d="M248.35,334.59l-35.42,7.66a5.74,5.74,0,0,1-2.82-.13l12.55-16.24,27.69,7.54A3.21,3.21,0,0,1,248.35,334.59Z" style="fill:#407BFF"></path><path d="M248.35,334.59l-35.42,7.66a5.74,5.74,0,0,1-2.82-.13l12.55-16.24,27.69,7.54A3.21,3.21,0,0,1,248.35,334.59Z" style="fill:#fff;opacity:0.5"></path><path d="M225.06,329.64l-26.92-7.33a3.55,3.55,0,0,1,1.62-.76l35.42-7.67a5.87,5.87,0,0,1,2.09,0Z" style="fill:#407BFF"></path><path d="M339.74,386.56,378,380.88a4,4,0,0,1,4.56,3.25L386.14,407a3.91,3.91,0,0,1-3.35,4.42l-38.25,5.68A4,4,0,0,1,340,413.8L336.4,391A3.9,3.9,0,0,1,339.74,386.56Z" style="fill:#407BFF"></path><path d="M339.74,386.56,378,380.88a4,4,0,0,1,4.56,3.25L386.14,407a3.91,3.91,0,0,1-3.35,4.42l-38.25,5.68A4,4,0,0,1,340,413.8L336.4,391A3.9,3.9,0,0,1,339.74,386.56Z" style="fill:#fff;opacity:0.30000000000000004"></path><path d="M344.54,417.05l38.25-5.68a3.91,3.91,0,0,0,2.44-1.34l-24.47-14.29-19,20.74A4,4,0,0,0,344.54,417.05Z" style="fill:#407BFF"></path><path d="M344.54,417.05l38.25-5.68a3.91,3.91,0,0,0,2.44-1.34l-24.47-14.29-19,20.74A4,4,0,0,0,344.54,417.05Z" style="fill:#fff;opacity:0.5"></path><path d="M361.63,401.29l18.44-20.18a4,4,0,0,0-2.08-.23l-38.25,5.68a3.94,3.94,0,0,0-1.91.83Z" style="fill:#407BFF"></path><polygon points="156 342.54 135.13 364.93 180.74 360.85 156 342.54" style="fill:#407BFF"></polygon><path d="M137.15,363.36l41.3-3.7a4.26,4.26,0,0,1,4.66,3.76l2.34,24.64a4.21,4.21,0,0,1-3.88,4.52l-41.29,3.7a4.26,4.26,0,0,1-4.66-3.76l-2.34-24.64A4.21,4.21,0,0,1,137.15,363.36Z" style="fill:#407BFF"></path><path d="M137.15,363.36l41.3-3.7a4.26,4.26,0,0,1,4.66,3.76l2.34,24.64a4.21,4.21,0,0,1-3.88,4.52l-41.29,3.7a4.26,4.26,0,0,1-4.66-3.76l-2.34-24.64A4.21,4.21,0,0,1,137.15,363.36Z" style="fill:#fff;opacity:0.5"></path><path d="M140.28,396.28l41.29-3.69a4.29,4.29,0,0,0,2.71-1.29L159,374.48l-21.66,21A4.3,4.3,0,0,0,140.28,396.28Z" style="fill:#407BFF"></path><path d="M140.28,396.28l41.29-3.69a4.29,4.29,0,0,0,2.71-1.29L159,374.48l-21.66,21A4.3,4.3,0,0,0,140.28,396.28Z" style="fill:#fff;opacity:0.7000000000000001"></path><path d="M159.6,380.48,180.66,360a4.32,4.32,0,0,0-2.21-.38l-41.29,3.69a4.34,4.34,0,0,0-2.11.77Z" style="fill:#407BFF"></path><path d="M159.6,380.48,180.66,360a4.32,4.32,0,0,0-2.21-.38l-41.29,3.69a4.34,4.34,0,0,0-2.11.77Z" style="fill:#fff;opacity:0.2"></path><path d="M170.09,379.79c11.57,2.49,23.65,3.12,35.23,5.61a3.45,3.45,0,0,1,2.63,4.28q-2.76,10.26-5.54,20.51a3.8,3.8,0,0,1-4.49,2.62c-11.58-2.5-23.66-3.12-35.24-5.61a3.46,3.46,0,0,1-2.63-4.29q2.76-10.25,5.54-20.51A3.81,3.81,0,0,1,170.09,379.79Z" style="fill:#407BFF"></path><path d="M170.09,379.79c11.57,2.49,23.65,3.12,35.23,5.61a3.45,3.45,0,0,1,2.63,4.28q-2.76,10.26-5.54,20.51a3.8,3.8,0,0,1-4.49,2.62c-11.58-2.5-23.66-3.12-35.24-5.61a3.46,3.46,0,0,1-2.63-4.29q2.76-10.25,5.54-20.51A3.81,3.81,0,0,1,170.09,379.79Z" style="fill:#fff;opacity:0.30000000000000004"></path><path d="M162.69,407.2c11.57,2.49,23.65,3.11,35.23,5.61a3.93,3.93,0,0,0,2.58-.33c-5.12-6.82-10.42-13-15.72-19.08-8.13,4.36-16.27,8.73-24.22,12.4A3.43,3.43,0,0,0,162.69,407.2Z" style="fill:#407BFF"></path><path d="M162.69,407.2c11.57,2.49,23.65,3.11,35.23,5.61a3.93,3.93,0,0,0,2.58-.33c-5.12-6.82-10.42-13-15.72-19.08-8.13,4.36-16.27,8.73-24.22,12.4A3.43,3.43,0,0,0,162.69,407.2Z" style="fill:#fff;opacity:0.5"></path><path d="M183.44,398.38c7.91-4.24,15.82-8.48,23.55-12.1a3.37,3.37,0,0,0-1.67-.88c-11.58-2.5-23.66-3.12-35.23-5.61a4,4,0,0,0-1.94.07C173.13,386.46,178.28,392.42,183.44,398.38Z" style="fill:#407BFF"></path><path d="M190.1,385.48a172.62,172.62,0,0,0-13.85,15.14,188.58,188.58,0,0,1,31.32-4.07A176.47,176.47,0,0,0,190.1,385.48Z" style="fill:#407BFF"></path><path d="M177.53,399.48A188.42,188.42,0,0,1,206,395.77a2.77,2.77,0,0,1,3.08,2.42q.3,7.59.61,15.18a2.64,2.64,0,0,1-2.53,2.68,166.31,166.31,0,0,0-25.26,3.29,2.69,2.69,0,0,1-3.17-1.94Q177,410,175.22,402.6A2.72,2.72,0,0,1,177.53,399.48Z" style="fill:#407BFF"></path><path d="M177.53,399.48A188.42,188.42,0,0,1,206,395.77a2.77,2.77,0,0,1,3.08,2.42q.3,7.59.61,15.18a2.64,2.64,0,0,1-2.53,2.68,166.31,166.31,0,0,0-25.26,3.29,2.69,2.69,0,0,1-3.17-1.94Q177,410,175.22,402.6A2.72,2.72,0,0,1,177.53,399.48Z" style="fill:#fff;opacity:0.5"></path><path d="M181.92,419.34a166.31,166.31,0,0,1,25.26-3.29,2.71,2.71,0,0,0,1.7-.72A157.72,157.72,0,0,0,192.8,405a152.5,152.5,0,0,0-12.72,14.06A2.75,2.75,0,0,0,181.92,419.34Z" style="fill:#407BFF"></path><path d="M181.92,419.34a166.31,166.31,0,0,1,25.26-3.29,2.71,2.71,0,0,0,1.7-.72A157.72,157.72,0,0,0,192.8,405a152.5,152.5,0,0,0-12.72,14.06A2.75,2.75,0,0,0,181.92,419.34Z" style="fill:#fff;opacity:0.7000000000000001"></path><path d="M193.3,408.68a161.59,161.59,0,0,1,14.24-12.63,3.18,3.18,0,0,0-1.52-.28,188.42,188.42,0,0,0-28.49,3.71,3.15,3.15,0,0,0-1.39.66A164.21,164.21,0,0,1,193.3,408.68Z" style="fill:#407BFF"></path><path d="M193.3,408.68a161.59,161.59,0,0,1,14.24-12.63,3.18,3.18,0,0,0-1.52-.28,188.42,188.42,0,0,0-28.49,3.71,3.15,3.15,0,0,0-1.39.66A164.21,164.21,0,0,1,193.3,408.68Z" style="fill:#fff;opacity:0.2"></path><path d="M228.85,351.84a284.64,284.64,0,0,0-28.08,18.52,305.37,305.37,0,0,1,51.09,5.72A279,279,0,0,0,228.85,351.84Z" style="fill:#407BFF"></path><path d="M203.26,369.05a307.53,307.53,0,0,1,46.49,5.2c2.62.5,4.35,2.77,3.85,5l-5.28,24.2a4.36,4.36,0,0,1-5.09,3.24A273,273,0,0,0,202,402.09a4.3,4.3,0,0,1-4.2-4.28l.52-24.74C198.37,370.78,200.59,369,203.26,369.05Z" style="fill:#407BFF"></path><path d="M203.26,369.05a307.53,307.53,0,0,1,46.49,5.2c2.62.5,4.35,2.77,3.85,5l-5.28,24.2a4.36,4.36,0,0,1-5.09,3.24A273,273,0,0,0,202,402.09a4.3,4.3,0,0,1-4.2-4.28l.52-24.74C198.37,370.78,200.59,369,203.26,369.05Z" style="fill:#fff;opacity:0.5"></path><path d="M202,402.09a273,273,0,0,1,41.22,4.61,4.48,4.48,0,0,0,3-.47,249.81,249.81,0,0,0-21.14-22.52A255.89,255.89,0,0,0,199.22,401,4.35,4.35,0,0,0,202,402.09Z" style="fill:#407BFF"></path><path d="M202,402.09a273,273,0,0,1,41.22,4.61,4.48,4.48,0,0,0,3-.47,249.81,249.81,0,0,0-21.14-22.52A255.89,255.89,0,0,0,199.22,401,4.35,4.35,0,0,0,202,402.09Z" style="fill:#fff;opacity:0.7000000000000001"></path><path d="M224.36,389.69A267.12,267.12,0,0,1,252,375.28a5.24,5.24,0,0,0-2.28-1,307.39,307.39,0,0,0-46.49-5.2,5.19,5.19,0,0,0-2.47.5A263.15,263.15,0,0,1,224.36,389.69Z" style="fill:#407BFF"></path><path d="M224.36,389.69A267.12,267.12,0,0,1,252,375.28a5.24,5.24,0,0,0-2.28-1,307.39,307.39,0,0,0-46.49-5.2,5.19,5.19,0,0,0-2.47.5A263.15,263.15,0,0,1,224.36,389.69Z" style="fill:#fff;opacity:0.2"></path><path d="M215,378l41,6.17a4.18,4.18,0,0,1,3.57,4.75l-3.9,24.45a4.29,4.29,0,0,1-4.89,3.48l-41-6.18a4.18,4.18,0,0,1-3.58-4.74l3.91-24.45A4.28,4.28,0,0,1,215,378Z" style="fill:#407BFF"></path><path d="M215,378l41,6.17a4.18,4.18,0,0,1,3.57,4.75l-3.9,24.45a4.29,4.29,0,0,1-4.89,3.48l-41-6.18a4.18,4.18,0,0,1-3.58-4.74l3.91-24.45A4.28,4.28,0,0,1,215,378Z" style="fill:#fff;opacity:0.30000000000000004"></path><path d="M209.76,410.65l41,6.17a4.33,4.33,0,0,0,2.95-.61l-20.28-22.28L207.14,409.2A4.26,4.26,0,0,0,209.76,410.65Z" style="fill:#407BFF"></path><path d="M209.76,410.65l41,6.17a4.33,4.33,0,0,0,2.95-.61l-20.28-22.28L207.14,409.2A4.26,4.26,0,0,0,209.76,410.65Z" style="fill:#fff;opacity:0.5"></path><path d="M232.46,399.88,258,385a4.29,4.29,0,0,0-2-.9L215,378a4.33,4.33,0,0,0-2.24.25Z" style="fill:#407BFF"></path><polygon points="251.87 343.8 237.77 365.76 275.59 355.58 251.87 343.8" style="fill:#407BFF"></polygon><path d="M239.24,364.13l34.24-9.21A3.68,3.68,0,0,1,278,357.4l5.83,20.43a3.56,3.56,0,0,1-2.56,4.38L247,391.43a3.7,3.7,0,0,1-4.51-2.48l-5.83-20.43A3.57,3.57,0,0,1,239.24,364.13Z" style="fill:#407BFF"></path><path d="M239.24,364.13l34.24-9.21A3.68,3.68,0,0,1,278,357.4l5.83,20.43a3.56,3.56,0,0,1-2.56,4.38L247,391.43a3.7,3.7,0,0,1-4.51-2.48l-5.83-20.43A3.57,3.57,0,0,1,239.24,364.13Z" style="fill:#fff;opacity:0.5"></path><path d="M247,391.43l34.23-9.22a3.63,3.63,0,0,0,2.08-1.48l-23.92-10.45-15,20.92A3.73,3.73,0,0,0,247,391.43Z" style="fill:#407BFF"></path><path d="M247,391.43l34.23-9.22a3.63,3.63,0,0,0,2.08-1.48l-23.92-10.45-15,20.92A3.73,3.73,0,0,0,247,391.43Z" style="fill:#fff;opacity:0.7000000000000001"></path><path d="M260.84,375.25l14.56-20.34a3.72,3.72,0,0,0-1.93,0l-34.23,9.21a3.77,3.77,0,0,0-1.66,1Z" style="fill:#407BFF"></path><path d="M260.84,375.25l14.56-20.34a3.72,3.72,0,0,0-1.93,0l-34.23,9.21a3.77,3.77,0,0,0-1.66,1Z" style="fill:#fff;opacity:0.2"></path><path d="M250,385.3c13.66-2.13,27-6.5,40.69-8.63a4.14,4.14,0,0,1,4.76,3.54q1.54,12.29,3.07,24.56a4.34,4.34,0,0,1-3.72,4.72c-13.66,2.13-27,6.5-40.7,8.63a4.15,4.15,0,0,1-4.76-3.54q-1.53-12.29-3.07-24.56A4.34,4.34,0,0,1,250,385.3Z" style="fill:#407BFF"></path><path d="M250,385.3c13.66-2.13,27-6.5,40.69-8.63a4.14,4.14,0,0,1,4.76,3.54q1.54,12.29,3.07,24.56a4.34,4.34,0,0,1-3.72,4.72c-13.66,2.13-27,6.5-40.7,8.63a4.15,4.15,0,0,1-4.76-3.54q-1.53-12.29-3.07-24.56A4.34,4.34,0,0,1,250,385.3Z" style="fill:#fff;opacity:0.30000000000000004"></path><path d="M254.09,418.12c13.65-2.13,27-6.5,40.69-8.63a4.55,4.55,0,0,0,2.66-1.43c-8.57-5.26-17-9.7-25.5-14.14-6.89,8.13-13.78,16.27-20.77,23.58A4.11,4.11,0,0,0,254.09,418.12Z" style="fill:#407BFF"></path><path d="M254.09,418.12c13.65-2.13,27-6.5,40.69-8.63a4.55,4.55,0,0,0,2.66-1.43c-8.57-5.26-17-9.7-25.5-14.14-6.89,8.13-13.78,16.27-20.77,23.58A4.11,4.11,0,0,0,254.09,418.12Z" style="fill:#fff;opacity:0.5"></path><path d="M272.69,399.89c6.7-7.91,13.4-15.81,20.2-23a4.14,4.14,0,0,0-2.22-.26c-13.66,2.13-27,6.51-40.69,8.64a4.58,4.58,0,0,0-2.08.89C256.23,391.26,264.46,395.58,272.69,399.89Z" style="fill:#407BFF"></path><path d="M322.33,363.52a287.3,287.3,0,0,0-29.72,15.94A306.27,306.27,0,0,1,343,389.7,277.62,277.62,0,0,0,322.33,363.52Z" style="fill:#407BFF"></path><path d="M295.22,378.38A307.29,307.29,0,0,1,341,387.7c2.56.73,4.07,3.15,3.37,5.33l-7.55,23.63a4.39,4.39,0,0,1-5.38,2.77,273.34,273.34,0,0,0-40.6-8.27,4.25,4.25,0,0,1-3.78-4.63l2.85-24.59C290.19,379.67,292.57,378,295.22,378.38Z" style="fill:#407BFF"></path><path d="M295.22,378.38A307.29,307.29,0,0,1,341,387.7c2.56.73,4.07,3.15,3.37,5.33l-7.55,23.63a4.39,4.39,0,0,1-5.38,2.77,273.34,273.34,0,0,0-40.6-8.27,4.25,4.25,0,0,1-3.78-4.63l2.85-24.59C290.19,379.67,292.57,378,295.22,378.38Z" style="fill:#fff;opacity:0.5"></path><path d="M290.86,411.17a272,272,0,0,1,40.6,8.26,4.4,4.4,0,0,0,3-.21,249,249,0,0,0-18.93-24.3,257.87,257.87,0,0,0-27.37,14.88A4.4,4.4,0,0,0,290.86,411.17Z" style="fill:#407BFF"></path><path d="M290.86,411.17a272,272,0,0,1,40.6,8.26,4.4,4.4,0,0,0,3-.21,249,249,0,0,0-18.93-24.3,257.87,257.87,0,0,0-27.37,14.88A4.4,4.4,0,0,0,290.86,411.17Z" style="fill:#fff;opacity:0.7000000000000001"></path><path d="M314.28,400.81a270,270,0,0,1,28.92-11.88A5.09,5.09,0,0,0,341,387.7a308.58,308.58,0,0,0-45.8-9.33,5.36,5.36,0,0,0-2.51.28A260.89,260.89,0,0,1,314.28,400.81Z" style="fill:#407BFF"></path><path d="M314.28,400.81a270,270,0,0,1,28.92-11.88A5.09,5.09,0,0,0,341,387.7a308.58,308.58,0,0,0-45.8-9.33,5.36,5.36,0,0,0-2.51.28A260.89,260.89,0,0,1,314.28,400.81Z" style="fill:#fff;opacity:0.2"></path><path d="M168.52,296.75a248.23,248.23,0,0,0-13.29,26.76,271.65,271.65,0,0,1,42.51-18A261.87,261.87,0,0,0,168.52,296.75Z" style="fill:#407BFF"></path><path d="M156.57,321.4a274,274,0,0,1,38.67-16.35,4.13,4.13,0,0,1,5.34,2.21l7.13,21.2a3.8,3.8,0,0,1-2.46,4.76A242.66,242.66,0,0,0,171,347.71a4,4,0,0,1-5.26-1.49L154.6,326.7A3.91,3.91,0,0,1,156.57,321.4Z" style="fill:#407BFF"></path><path d="M156.57,321.4a274,274,0,0,1,38.67-16.35,4.13,4.13,0,0,1,5.34,2.21l7.13,21.2a3.8,3.8,0,0,1-2.46,4.76A242.66,242.66,0,0,0,171,347.71a4,4,0,0,1-5.26-1.49L154.6,326.7A3.91,3.91,0,0,1,156.57,321.4Z" style="fill:#fff;opacity:0.5"></path><path d="M171,347.71a243.15,243.15,0,0,1,34.29-14.49,3.93,3.93,0,0,0,2.1-1.68,234.23,234.23,0,0,0-26.95-8.28,220.62,220.62,0,0,0-12.14,24.8A4,4,0,0,0,171,347.71Z" style="fill:#407BFF"></path><path d="M171,347.71a243.15,243.15,0,0,1,34.29-14.49,3.93,3.93,0,0,0,2.1-1.68,234.23,234.23,0,0,0-26.95-8.28,220.62,220.62,0,0,0-12.14,24.8A4,4,0,0,0,171,347.71Z" style="fill:#fff;opacity:0.7000000000000001"></path><path d="M182.62,328.23a231.35,231.35,0,0,1,14.88-23.38,4.77,4.77,0,0,0-2.26.2,275.07,275.07,0,0,0-38.67,16.34,4.62,4.62,0,0,0-1.69,1.48A244.79,244.79,0,0,1,182.62,328.23Z" style="fill:#407BFF"></path><path d="M182.62,328.23a231.35,231.35,0,0,1,14.88-23.38,4.77,4.77,0,0,0-2.26.2,275.07,275.07,0,0,0-38.67,16.34,4.62,4.62,0,0,0-1.69,1.48A244.79,244.79,0,0,1,182.62,328.23Z" style="fill:#fff;opacity:0.2"></path><path d="M202,358.88l-30.28,11c-9.79-11.05-5-27.39-14.81-38.44l30.28-11C196.93,331.49,192.17,347.83,202,358.88Z" style="fill:#fff"></path><path d="M194.84,352l-25.27,9.19c.24.64.5,1.27.79,1.89l25.27-9.18C195.35,353.25,195.08,352.62,194.84,352Z" style="fill:#407BFF;opacity:0.30000000000000004"></path><path d="M183,349.52l-15.21,5.53q.22,1,.48,2l15.21-5.53Q183.24,350.54,183,349.52Z" style="fill:#407BFF;opacity:0.30000000000000004"></path><path d="M190.76,346.7l-5,1.81q.22,1,.48,2l5-1.81Q191,347.72,190.76,346.7Z" style="fill:#407BFF;opacity:0.30000000000000004"></path><path d="M191.85,339.55l-25.27,9.19c.12.68.25,1.36.37,2l25.28-9.19C192.1,340.91,192,340.23,191.85,339.55Z" style="fill:#407BFF;opacity:0.30000000000000004"></path><path d="M184.93,335.31l-19.68,7.15q.25,1,.48,2l19.68-7.15Q185.19,336.3,184.93,335.31Z" style="fill:#407BFF;opacity:0.30000000000000004"></path><path d="M188.45,327.27l-14.85,5.4c.28.62.54,1.25.79,1.89l14.85-5.4C189,328.52,188.74,327.89,188.45,327.27Z" style="fill:#407BFF;opacity:0.30000000000000004"></path><path d="M163.18,336.46l7.95-2.89c.28.62.55,1.25.79,1.89L164,338.35C163.72,337.71,163.46,337.08,163.18,336.46Z" style="fill:#407BFF;opacity:0.30000000000000004"></path><path d="M198.86,341.34a249.27,249.27,0,0,1,25.87,13.88,266.65,266.65,0,0,0-43.84,8.92A242,242,0,0,1,198.86,341.34Z" style="fill:#407BFF"></path><path d="M222.47,354.28a266.47,266.47,0,0,0-39.9,8.12,3.83,3.83,0,0,0-2.93,4.64l6.57,20.58A3.83,3.83,0,0,0,190.9,390a238.7,238.7,0,0,1,35.37-7.2,3.71,3.71,0,0,0,3.29-4l-2.49-21.42C226.85,355.4,224.77,354,222.47,354.28Z" style="fill:#407BFF"></path><path d="M222.47,354.28a266.47,266.47,0,0,0-39.9,8.12,3.83,3.83,0,0,0-2.93,4.64l6.57,20.58A3.83,3.83,0,0,0,190.9,390a238.7,238.7,0,0,1,35.37-7.2,3.71,3.71,0,0,0,3.29-4l-2.49-21.42C226.85,355.4,224.77,354,222.47,354.28Z" style="fill:#fff;opacity:0.5"></path><path d="M226.26,382.84A236,236,0,0,0,190.9,390a3.88,3.88,0,0,1-2.63-.19,217.21,217.21,0,0,1,16.48-21.16,221.38,221.38,0,0,1,23.85,13A3.86,3.86,0,0,1,226.26,382.84Z" style="fill:#407BFF"></path><path d="M226.26,382.84A236,236,0,0,0,190.9,390a3.88,3.88,0,0,1-2.63-.19,217.21,217.21,0,0,1,16.48-21.16,221.38,221.38,0,0,1,23.85,13A3.86,3.86,0,0,1,226.26,382.84Z" style="fill:#fff;opacity:0.7000000000000001"></path><path d="M205.86,373.82a233.15,233.15,0,0,0-25.18-10.35,4.47,4.47,0,0,1,1.89-1.08,269.13,269.13,0,0,1,39.89-8.12,4.67,4.67,0,0,1,2.19.25A225.52,225.52,0,0,0,205.86,373.82Z" style="fill:#407BFF"></path><path d="M205.86,373.82a233.15,233.15,0,0,0-25.18-10.35,4.47,4.47,0,0,1,1.89-1.08,269.13,269.13,0,0,1,39.89-8.12,4.67,4.67,0,0,1,2.19.25A225.52,225.52,0,0,0,205.86,373.82Z" style="fill:#fff;opacity:0.2"></path><path d="M110.35,319l-.29-.83c2.61-.87,5.28-1.66,7.94-2.35l.23.85C115.59,317.36,112.94,318.14,110.35,319Z" style="fill:#407BFF"></path><path d="M118.82,318.79a121.84,121.84,0,0,0-13.62,4.41,129.11,129.11,0,0,1,20.13,8A115.51,115.51,0,0,0,118.82,318.79Z" style="fill:#407BFF"></path><path d="M106.36,322.94a128.34,128.34,0,0,1,18.32,7.31,1.83,1.83,0,0,1,1,2.46l-5,9.27a1.87,1.87,0,0,1-2.46.75A114.46,114.46,0,0,0,102,336.26a1.78,1.78,0,0,1-1.2-2.21q1.56-5,3.13-10A1.94,1.94,0,0,1,106.36,322.94Z" style="fill:#407BFF"></path><path d="M106.36,322.94a128.34,128.34,0,0,1,18.32,7.31,1.83,1.83,0,0,1,1,2.46l-5,9.27a1.87,1.87,0,0,1-2.46.75A114.46,114.46,0,0,0,102,336.26a1.78,1.78,0,0,1-1.2-2.21q1.56-5,3.13-10A1.94,1.94,0,0,1,106.36,322.94Z" style="fill:#fff;opacity:0.5"></path><path d="M102,336.26a114.46,114.46,0,0,1,16.24,6.47,1.88,1.88,0,0,0,1.27.14,104,104,0,0,0-5.94-11.52A108.19,108.19,0,0,0,101,335.49,1.81,1.81,0,0,0,102,336.26Z" style="fill:#407BFF"></path><path d="M102,336.26a114.46,114.46,0,0,1,16.24,6.47,1.88,1.88,0,0,0,1.27.14,104,104,0,0,0-5.94-11.52A108.19,108.19,0,0,0,101,335.49,1.81,1.81,0,0,0,102,336.26Z" style="fill:#fff;opacity:0.7000000000000001"></path><path d="M112.52,333.7a114.49,114.49,0,0,1,13-2.78,2.17,2.17,0,0,0-.81-.68,129.83,129.83,0,0,0-18.31-7.3,2.31,2.31,0,0,0-1.07-.07A108.39,108.39,0,0,1,112.52,333.7Z" style="fill:#407BFF"></path><path d="M112.52,333.7a114.49,114.49,0,0,1,13-2.78,2.17,2.17,0,0,0-.81-.68,129.83,129.83,0,0,0-18.31-7.3,2.31,2.31,0,0,0-1.07-.07A108.39,108.39,0,0,1,112.52,333.7Z" style="fill:#fff;opacity:0.2"></path><polygon points="342 329.97 360.19 343.68 320.46 341.18 342 329.97" style="fill:#407BFF"></polygon><path d="M358.42,342.71l-36-2.26c-2-.13-3.87.91-4.06,2.3l-2,15.09c-.19,1.39,1.33,2.64,3.37,2.77l36,2.26c2.05.13,3.87-.91,4.06-2.3l2-15.09C362,344.09,360.46,342.84,358.42,342.71Z" style="fill:#407BFF"></path><path d="M358.42,342.71l-36-2.26c-2-.13-3.87.91-4.06,2.3l-2,15.09c-.19,1.39,1.33,2.64,3.37,2.77l36,2.26c2.05.13,3.87-.91,4.06-2.3l2-15.09C362,344.09,360.46,342.84,358.42,342.71Z" style="fill:#fff;opacity:0.5"></path><path d="M355.7,362.87l-36-2.26a4.48,4.48,0,0,1-2.35-.79l22-10.29,18.86,12.86A4.91,4.91,0,0,1,355.7,362.87Z" style="fill:#407BFF"></path><path d="M355.7,362.87l-36-2.26a4.48,4.48,0,0,1-2.35-.79l22-10.29,18.86,12.86A4.91,4.91,0,0,1,355.7,362.87Z" style="fill:#fff;opacity:0.7000000000000001"></path><path d="M338.87,353.19l-18.34-12.51a5.23,5.23,0,0,1,1.92-.23l36,2.26a4.7,4.7,0,0,1,1.83.47Z" style="fill:#407BFF"></path><path d="M338.87,353.19l-18.34-12.51a5.23,5.23,0,0,1,1.92-.23l36,2.26a4.7,4.7,0,0,1,1.83.47Z" style="fill:#fff;opacity:0.2"></path></g></svg>